SplineFontDB: 3.2
FontName: Essiah
FullName: Essiah
FamilyName: Essiah
Weight: Book
Copyright: Copyright (c) 2023, Michael Chapman
Version: 001.000
ItalicAngle: 0
UnderlinePosition: -100
UnderlineWidth: 51
Ascent: 512
Descent: 512
InvalidEm: 0
sfntRevision: 0x00010000
LayerCount: 2
Layer: 0 1 "Back" 1
Layer: 1 1 "Fore" 0
XUID: [1021 96 -335474456 12931914]
StyleMap: 0x0040
FSType: 0
OS2Version: 4
OS2_WeightWidthSlopeOnly: 0
OS2_UseTypoMetrics: 1
CreationTime: 1701637513
ModificationTime: 1731408862
PfmFamily: 17
TTFWeight: 400
TTFWidth: 5
LineGap: 94
VLineGap: 0
Panose: 2 0 5 3 0 0 0 0 0 0
OS2TypoAscent: 839
OS2TypoAOffset: 0
OS2TypoDescent: -210
OS2TypoDOffset: 0
OS2TypoLinegap: 94
OS2WinAscent: 839
OS2WinAOffset: 0
OS2WinDescent: 210
OS2WinDOffset: 0
HheadAscent: 839
HheadAOffset: 0
HheadDescent: 210
HheadDOffset: 0
OS2SubXSize: 665
OS2SubYSize: 716
OS2SubXOff: 0
OS2SubYOff: 143
OS2SupXSize: 665
OS2SupYSize: 716
OS2SupXOff: 0
OS2SupYOff: 491
OS2StrikeYSize: 51
OS2StrikeYPos: 265
OS2CapHeight: 640
OS2XHeight: 640
OS2Vendor: 'PfEd'
OS2CodePages: 00000001.00000000
OS2UnicodeRanges: 00000003.00000000.00000000.00000000
MarkAttachClasses: 1
DEI: 91125
ShortTable: cvt  2
  34
  648
EndShort
ShortTable: maxp 16
  1
  0
  120
  16
  5
  0
  0
  2
  0
  1
  1
  0
  64
  46
  0
  0
EndShort
LangName: 1033 "" "" "Regular" "FontForge : Essiah : 21-7-2024" "" "Version 001.000"
GaspTable: 1 65535 2 0
Encoding: UnicodeBmp
UnicodeInterp: none
NameList: AGL For New Fonts
DisplaySize: -48
AntiAlias: 1
FitToEm: 0
WinInfo: 16 16 10
BeginPrivate: 0
EndPrivate
Grid
0 -512 m 1
 1024 512 l 1025
0 512 m 25
 1024 -512 l 1025
192 0 m 4
 192 177 335 320 512 320 c 4
 689 320 832 177 832 0 c 4
 832 -177 689 -320 512 -320 c 4
 335 -320 192 -177 192 0 c 4
64 0 m 4
 64 -247 265 -448 512 -448 c 4
 759 -448 960 -247 960 0 c 4
 960 247 759 448 512 448 c 4
 265 448 64 247 64 0 c 4
0 320 m 1
 1024 320 l 1049
0 -320 m 25
 1024 -320 l 1025
832 -512 m 25
 832 512 l 1025
192 -512 m 1
 192 512 l 1049

StartChar: .notdef
Encoding: 65536 -1 0
Width: 374
GlyphClass: 1
Flags: W
LayerCount: 2
Fore
SplineSet
34 0 m 1,0,-1
 34 682 l 1,1,-1
 306 682 l 1,2,-1
 306 0 l 1,3,-1
 34 0 l 1,0,-1
68 34 m 1,4,-1
 272 34 l 1,5,-1
 272 648 l 1,6,-1
 68 648 l 1,7,-1
 68 34 l 1,4,-1
EndSplineSet
Validated: 1
EndChar

StartChar: eth
Encoding: 240 240 4
Width: 1024
Flags: W
LayerCount: 2
Fore
SplineSet
196 316 m 5,0,-1
 286 226 l 5,1,2
 216 156 216 156 198 64 c 5,3,-1
 448 64 l 5,4,-1
 448 448 l 5,5,-1
 576 448 l 5,6,-1
 576 64 l 5,7,-1
 960 64 l 5,8,-1
 960 -64 l 5,9,-1
 576 -64 l 5,10,-1
 576 -448 l 5,11,-1
 448 -448 l 5,12,-1
 448 -64 l 5,13,-1
 68 -64 l 5,14,15
 64 -33 64 -33 64 0 c 4,16,17
 64 184 64 184 196 316 c 5,0,-1
EndSplineSet
Validated: 1
EndChar

StartChar: ntilde
Encoding: 241 241 5
Width: 1024
Flags: W
LayerCount: 2
Fore
SplineSet
196 -316 m 5,0,-1
 286 -226 l 5,1,2
 356 -296 356 -296 448 -314 c 5,3,-1
 448 -64 l 5,4,-1
 64 -64 l 5,5,-1
 64 64 l 5,6,-1
 448 64 l 5,7,-1
 448 448 l 5,8,-1
 576 448 l 5,9,-1
 576 64 l 5,10,-1
 960 64 l 5,11,-1
 960 -64 l 5,12,-1
 576 -64 l 5,13,-1
 576 -444 l 5,14,15
 545 -448 545 -448 512 -448 c 4,16,17
 328 -448 328 -448 196 -316 c 5,0,-1
EndSplineSet
Validated: 1
EndChar

StartChar: ograve
Encoding: 242 242 6
Width: 1024
Flags: W
LayerCount: 2
Fore
SplineSet
828 -316 m 5,0,-1
 738 -226 l 5,1,2
 808 -156 808 -156 826 -64 c 5,3,-1
 576 -64 l 5,4,-1
 576 -448 l 5,5,-1
 448 -448 l 5,6,-1
 448 -64 l 5,7,-1
 64 -64 l 5,8,-1
 64 64 l 5,9,-1
 448 64 l 5,10,-1
 448 448 l 5,11,-1
 576 448 l 5,12,-1
 576 64 l 5,13,-1
 956 64 l 5,14,15
 960 33 960 33 960 0 c 4,16,17
 960 -184 960 -184 828 -316 c 5,0,-1
EndSplineSet
Validated: 1
EndChar

StartChar: oacute
Encoding: 243 243 7
Width: 1024
Flags: W
LayerCount: 2
Fore
SplineSet
828 316 m 5,0,-1
 738 226 l 5,1,2
 668 296 668 296 576 314 c 5,3,-1
 576 64 l 5,4,-1
 960 64 l 5,5,-1
 960 -64 l 5,6,-1
 576 -64 l 5,7,-1
 576 -448 l 5,8,-1
 448 -448 l 5,9,-1
 448 -64 l 5,10,-1
 64 -64 l 5,11,-1
 64 64 l 5,12,-1
 448 64 l 5,13,-1
 448 444 l 5,14,15
 479 448 479 448 512 448 c 4,16,17
 696 448 696 448 828 316 c 5,0,-1
EndSplineSet
Validated: 1
EndChar

StartChar: ocircumflex
Encoding: 244 244 8
Width: 1024
Flags: W
LayerCount: 2
Fore
SplineSet
960 -64 m 5,0,-1
 576 -64 l 5,1,-1
 576 -448 l 5,2,-1
 448 -448 l 5,3,-1
 448 -64 l 5,4,-1
 68 -64 l 5,5,6
 64 -33 64 -33 64 0 c 4,7,8
 64 184 64 184 196 316 c 5,9,-1
 286 226 l 5,10,11
 216 156 216 156 198 64 c 5,12,-1
 448 64 l 5,13,-1
 448 444 l 5,14,15
 479 448 479 448 512 448 c 4,16,17
 696 448 696 448 828 316 c 5,18,-1
 738 226 l 5,19,20
 668 296 668 296 576 314 c 5,21,-1
 576 64 l 5,22,-1
 960 64 l 5,23,-1
 960 -64 l 5,0,-1
EndSplineSet
Validated: 1025
EndChar

StartChar: oslash
Encoding: 248 248 9
Width: 1024
Flags: W
LayerCount: 2
Fore
SplineSet
576 -64 m 5,0,-1
 576 -444 l 5,1,2
 545 -448 545 -448 512 -448 c 4,3,4
 328 -448 328 -448 196 -316 c 5,5,6
 196 -316 196 -316 286 -226 c 5,7,8
 356 -296 356 -296 448 -314 c 5,9,10
 448 -314 448 -314 448 -64 c 5,11,-1
 68 -64 l 5,12,13
 64 -33 64 -33 64 0 c 4,14,15
 64 184 64 184 196 316 c 5,16,17
 196 316 196 316 286 226 c 5,18,19
 216 156 216 156 198 64 c 5,20,21
 198 64 198 64 448 64 c 5,22,-1
 448 444 l 5,23,24
 479 448 479 448 512 448 c 4,25,26
 696 448 696 448 828 316 c 5,27,28
 828 316 828 316 738 226 c 5,29,30
 668 296 668 296 576 314 c 5,31,32
 576 314 576 314 576 64 c 5,33,-1
 960 64 l 5,34,-1
 960 -64 l 5,35,-1
 576 -64 l 5,0,-1
EndSplineSet
Validated: 1025
EndChar

StartChar: otilde
Encoding: 245 245 10
Width: 1024
Flags: W
LayerCount: 2
Fore
SplineSet
576 448 m 5,0,-1
 576 64 l 5,1,-1
 960 64 l 5,2,-1
 960 -64 l 5,3,-1
 576 -64 l 5,4,-1
 576 -444 l 5,5,6
 545 -448 545 -448 512 -448 c 4,7,8
 328 -448 328 -448 196 -316 c 5,9,-1
 286 -226 l 5,10,11
 356 -296 356 -296 448 -314 c 5,12,-1
 448 -64 l 5,13,-1
 68 -64 l 5,14,15
 64 -33 64 -33 64 0 c 4,16,17
 64 184 64 184 196 316 c 5,18,-1
 286 226 l 5,19,20
 216 156 216 156 198 64 c 5,21,-1
 448 64 l 5,22,-1
 448 448 l 5,23,-1
 576 448 l 5,0,-1
EndSplineSet
Validated: 1025
EndChar

StartChar: odieresis
Encoding: 246 246 11
Width: 1024
Flags: W
LayerCount: 2
Fore
SplineSet
64 64 m 5,0,-1
 448 64 l 5,1,-1
 448 448 l 5,2,-1
 576 448 l 5,3,-1
 576 64 l 5,4,-1
 956 64 l 5,5,6
 960 33 960 33 960 0 c 4,7,8
 960 -184 960 -184 828 -316 c 5,9,-1
 738 -226 l 5,10,11
 808 -156 808 -156 826 -64 c 5,12,-1
 576 -64 l 5,13,-1
 576 -444 l 5,14,15
 545 -448 545 -448 512 -448 c 4,16,17
 328 -448 328 -448 196 -316 c 5,18,-1
 286 -226 l 5,19,20
 356 -296 356 -296 448 -314 c 5,21,-1
 448 -64 l 5,22,-1
 64 -64 l 5,23,-1
 64 64 l 5,0,-1
EndSplineSet
Validated: 1025
EndChar

StartChar: divide
Encoding: 247 247 12
Width: 1024
Flags: W
LayerCount: 2
Fore
SplineSet
448 -448 m 5,0,-1
 448 -64 l 5,1,-1
 64 -64 l 5,2,-1
 64 64 l 5,3,-1
 448 64 l 5,4,-1
 448 444 l 5,5,6
 479 448 479 448 512 448 c 4,7,8
 696 448 696 448 828 316 c 5,9,-1
 738 226 l 5,10,11
 668 296 668 296 576 314 c 5,12,-1
 576 64 l 5,13,-1
 956 64 l 5,14,15
 960 33 960 33 960 0 c 4,16,17
 960 -184 960 -184 828 -316 c 5,18,-1
 738 -226 l 5,19,20
 808 -156 808 -156 826 -64 c 5,21,-1
 576 -64 l 5,22,-1
 576 -448 l 5,23,-1
 448 -448 l 5,0,-1
EndSplineSet
Validated: 1025
EndChar

StartChar: ugrave
Encoding: 249 249 13
Width: 1024
Flags: W
LayerCount: 2
Fore
SplineSet
576 64 m 5,0,-1
 956 64 l 5,1,2
 960 33 960 33 960 0 c 4,3,4
 960 -184 960 -184 828 -316 c 5,5,6
 828 -316 828 -316 738 -226 c 5,7,8
 808 -156 808 -156 826 -64 c 5,9,10
 826 -64 826 -64 576 -64 c 5,11,-1
 576 -444 l 5,12,13
 545 -448 545 -448 512 -448 c 4,14,15
 328 -448 328 -448 196 -316 c 5,16,17
 196 -316 196 -316 286 -226 c 5,18,19
 356 -296 356 -296 448 -314 c 5,20,21
 448 -314 448 -314 448 -64 c 5,22,-1
 68 -64 l 5,23,24
 64 -33 64 -33 64 0 c 4,25,26
 64 184 64 184 196 316 c 5,27,28
 196 316 196 316 286 226 c 5,29,30
 216 156 216 156 198 64 c 5,31,32
 198 64 198 64 448 64 c 5,33,-1
 448 448 l 5,34,-1
 576 448 l 5,35,-1
 576 64 l 5,0,-1
EndSplineSet
Validated: 1025
EndChar

StartChar: uacute
Encoding: 250 250 14
Width: 1024
Flags: W
LayerCount: 2
Fore
SplineSet
448 64 m 5,0,-1
 448 444 l 5,1,2
 479 448 479 448 512 448 c 4,3,4
 696 448 696 448 828 316 c 5,5,6
 828 316 828 316 738 226 c 5,7,8
 668 296 668 296 576 314 c 5,9,10
 576 314 576 314 576 64 c 5,11,-1
 956 64 l 5,12,13
 960 33 960 33 960 0 c 4,14,15
 960 -184 960 -184 828 -316 c 5,16,17
 828 -316 828 -316 738 -226 c 5,18,19
 808 -156 808 -156 826 -64 c 5,20,21
 826 -64 826 -64 576 -64 c 5,22,-1
 576 -444 l 5,23,24
 545 -448 545 -448 512 -448 c 4,25,26
 328 -448 328 -448 196 -316 c 5,27,28
 196 -316 196 -316 286 -226 c 5,29,30
 356 -296 356 -296 448 -314 c 5,31,32
 448 -314 448 -314 448 -64 c 5,33,-1
 64 -64 l 5,34,-1
 64 64 l 5,35,-1
 448 64 l 5,0,-1
EndSplineSet
Validated: 1025
EndChar

StartChar: ucircumflex
Encoding: 251 251 15
Width: 1024
Flags: W
LayerCount: 2
Fore
SplineSet
448 -64 m 5,0,-1
 68 -64 l 5,1,2
 64 -33 64 -33 64 0 c 4,3,4
 64 184 64 184 196 316 c 5,5,6
 196 316 196 316 286 226 c 5,7,8
 216 156 216 156 198 64 c 5,9,10
 198 64 198 64 448 64 c 5,11,-1
 448 444 l 5,12,13
 479 448 479 448 512 448 c 4,14,15
 696 448 696 448 828 316 c 5,16,17
 828 316 828 316 738 226 c 5,18,19
 668 296 668 296 576 314 c 5,20,21
 576 314 576 314 576 64 c 5,22,-1
 956 64 l 5,23,24
 960 33 960 33 960 0 c 4,25,26
 960 -184 960 -184 828 -316 c 5,27,28
 828 -316 828 -316 738 -226 c 5,29,30
 808 -156 808 -156 826 -64 c 5,31,32
 826 -64 826 -64 576 -64 c 5,33,-1
 576 -448 l 5,34,-1
 448 -448 l 5,35,-1
 448 -64 l 5,0,-1
EndSplineSet
Validated: 1025
EndChar

StartChar: udieresis
Encoding: 252 252 16
Width: 1024
Flags: W
LayerCount: 2
Fore
SplineSet
448 64 m 1,0,-1
 448 444 l 1,1,2
 479 448 479 448 512 448 c 0,3,4
 696 448 696 448 828 316 c 1,5,6
 828 316 828 316 738 226 c 1,7,8
 668 296 668 296 576 314 c 1,9,10
 576 314 576 314 576 64 c 1,11,-1
 960 64 l 1,12,-1
 960 -64 l 1,13,-1
 576 -64 l 1,14,-1
 576 -444 l 1,15,16
 545 -448 545 -448 512 -448 c 0,17,18
 328 -448 328 -448 196 -316 c 1,19,20
 196 -316 196 -316 286 -226 c 1,21,22
 356 -296 356 -296 448 -314 c 1,23,24
 448 -314 448 -314 448 -64 c 1,25,-1
 64 -64 l 1,26,-1
 64 64 l 1,27,-1
 448 64 l 1,0,-1
EndSplineSet
Validated: 1025
EndChar

StartChar: yacute
Encoding: 253 253 17
Width: 1024
Flags: W
LayerCount: 2
Fore
SplineSet
448 -64 m 1,0,-1
 68 -64 l 1,1,2
 64 -33 64 -33 64 0 c 0,3,4
 64 184 64 184 196 316 c 1,5,6
 196 316 196 316 286 226 c 1,7,8
 216 156 216 156 198 64 c 1,9,10
 198 64 198 64 448 64 c 1,11,-1
 448 448 l 1,12,-1
 576 448 l 1,13,-1
 576 64 l 1,14,-1
 956 64 l 1,15,16
 960 33 960 33 960 0 c 0,17,18
 960 -184 960 -184 828 -316 c 1,19,20
 828 -316 828 -316 738 -226 c 1,21,22
 808 -156 808 -156 826 -64 c 1,23,24
 826 -64 826 -64 576 -64 c 1,25,-1
 576 -448 l 1,26,-1
 448 -448 l 1,27,-1
 448 -64 l 1,0,-1
EndSplineSet
Validated: 1025
EndChar

StartChar: thorn
Encoding: 254 254 18
Width: 1024
Flags: W
LayerCount: 2
Fore
SplineSet
576 -64 m 1,0,-1
 576 -444 l 1,1,2
 545 -448 545 -448 512 -448 c 0,3,4
 328 -448 328 -448 196 -316 c 1,5,6
 196 -316 196 -316 286 -226 c 1,7,8
 356 -296 356 -296 448 -314 c 1,9,10
 448 -314 448 -314 448 -64 c 1,11,-1
 68 -64 l 1,12,13
 64 -33 64 -33 64 0 c 0,14,15
 64 184 64 184 196 316 c 1,16,17
 196 316 196 316 286 226 c 1,18,19
 216 156 216 156 198 64 c 1,20,21
 198 64 198 64 448 64 c 1,22,-1
 448 444 l 1,23,24
 479 448 479 448 512 448 c 0,25,26
 696 448 696 448 828 316 c 1,27,28
 828 316 828 316 738 226 c 1,29,30
 668 296 668 296 576 314 c 1,31,32
 576 314 576 314 576 64 c 1,33,-1
 956 64 l 1,34,35
 960 33 960 33 960 0 c 0,36,37
 960 -184 960 -184 828 -316 c 1,38,39
 828 -316 828 -316 738 -226 c 1,40,41
 808 -156 808 -156 826 -64 c 1,42,43
 826 -64 826 -64 576 -64 c 1,0,-1
EndSplineSet
Validated: 1025
EndChar

StartChar: ydieresis
Encoding: 255 255 19
Width: 1024
Flags: W
LayerCount: 2
Fore
SplineSet
448 -64 m 5,0,-1
 198 -64 l 5,1,2
 216 -156 216 -156 286 -226 c 5,3,-1
 196 -316 l 5,4,5
 64 -184 64 -184 64 0 c 4,6,7
 64 33 64 33 68 64 c 5,8,-1
 448 64 l 5,9,-1
 448 314 l 5,10,11
 356 296 356 296 286 226 c 5,12,-1
 196 316 l 5,13,14
 328 448 328 448 512 448 c 4,15,16
 545 448 545 448 576 444 c 5,17,-1
 576 64 l 5,18,-1
 826 64 l 5,19,20
 808 156 808 156 738 226 c 5,21,-1
 828 316 l 5,22,23
 960 184 960 184 960 0 c 4,24,25
 960 -33 960 -33 956 -64 c 5,26,-1
 576 -64 l 5,27,-1
 576 -314 l 5,28,29
 668 -296 668 -296 738 -226 c 5,30,-1
 828 -316 l 5,31,32
 696 -448 696 -448 512 -448 c 4,33,34
 479 -448 479 -448 448 -444 c 5,35,-1
 448 -64 l 5,0,-1
EndSplineSet
Validated: 1025
EndChar

StartChar: Amacron
Encoding: 256 256 20
Width: 1024
Flags: W
LayerCount: 2
Fore
SplineSet
832 0 m 1,0,1
 832 0 832 0 960 0 c 1,2,3
 960 -185 960 -185 828.5 -316.5 c 128,-1,4
 697 -448 697 -448 512 -448 c 128,-1,5
 327 -448 327 -448 195.5 -316.5 c 128,-1,6
 64 -185 64 -185 64 0 c 2,7,8
 64 0 64 0 64 448 c 1,9,-1
 192 448 l 1,10,-1
 192 0 l 2,11,12
 192 -133 192 -133 285.5 -226.5 c 128,-1,13
 379 -320 379 -320 512 -320 c 128,-1,14
 645 -320 645 -320 738.5 -226.5 c 128,-1,15
 832 -133 832 -133 832 0 c 1,0,1
EndSplineSet
Validated: 1
EndChar

StartChar: zero
Encoding: 48 48 21
Width: 1024
Flags: W
LayerCount: 2
Fore
SplineSet
196 316 m 5,0,-1
 286 226 l 5,1,2
 216 156 216 156 198 64 c 5,3,-1
 448 64 l 5,4,-1
 448 448 l 5,5,-1
 576 448 l 5,6,-1
 576 64 l 5,7,-1
 960 64 l 5,8,-1
 960 -64 l 5,9,-1
 576 -64 l 5,10,-1
 576 -448 l 5,11,-1
 448 -448 l 5,12,-1
 448 -64 l 5,13,-1
 68 -64 l 5,14,15
 64 -33 64 -33 64 0 c 4,16,17
 64 184 64 184 196 316 c 5,0,-1
EndSplineSet
Validated: 1
EndChar

StartChar: one
Encoding: 49 49 22
Width: 1024
Flags: W
LayerCount: 2
Fore
SplineSet
196 -316 m 5,0,-1
 286 -226 l 5,1,2
 356 -296 356 -296 448 -314 c 5,3,-1
 448 -64 l 5,4,-1
 64 -64 l 5,5,-1
 64 64 l 5,6,-1
 448 64 l 5,7,-1
 448 448 l 5,8,-1
 576 448 l 5,9,-1
 576 64 l 5,10,-1
 960 64 l 5,11,-1
 960 -64 l 5,12,-1
 576 -64 l 5,13,-1
 576 -444 l 5,14,15
 545 -448 545 -448 512 -448 c 4,16,17
 328 -448 328 -448 196 -316 c 5,0,-1
EndSplineSet
Validated: 1
EndChar

StartChar: two
Encoding: 50 50 23
Width: 1024
Flags: W
LayerCount: 2
Fore
SplineSet
828 -316 m 5,0,-1
 738 -226 l 5,1,2
 808 -156 808 -156 826 -64 c 5,3,-1
 576 -64 l 5,4,-1
 576 -448 l 5,5,-1
 448 -448 l 5,6,-1
 448 -64 l 5,7,-1
 64 -64 l 5,8,-1
 64 64 l 5,9,-1
 448 64 l 5,10,-1
 448 448 l 5,11,-1
 576 448 l 5,12,-1
 576 64 l 5,13,-1
 956 64 l 5,14,15
 960 33 960 33 960 0 c 4,16,17
 960 -184 960 -184 828 -316 c 5,0,-1
EndSplineSet
Validated: 1
EndChar

StartChar: three
Encoding: 51 51 24
Width: 1024
Flags: W
LayerCount: 2
Fore
SplineSet
828 316 m 5,0,-1
 738 226 l 5,1,2
 668 296 668 296 576 314 c 5,3,-1
 576 64 l 5,4,-1
 960 64 l 5,5,-1
 960 -64 l 5,6,-1
 576 -64 l 5,7,-1
 576 -448 l 5,8,-1
 448 -448 l 5,9,-1
 448 -64 l 5,10,-1
 64 -64 l 5,11,-1
 64 64 l 5,12,-1
 448 64 l 5,13,-1
 448 444 l 5,14,15
 479 448 479 448 512 448 c 4,16,17
 696 448 696 448 828 316 c 5,0,-1
EndSplineSet
Validated: 1
EndChar

StartChar: four
Encoding: 52 52 25
Width: 1024
Flags: W
LayerCount: 2
Fore
SplineSet
960 -64 m 5,0,-1
 576 -64 l 5,1,-1
 576 -448 l 5,2,-1
 448 -448 l 5,3,-1
 448 -64 l 5,4,-1
 68 -64 l 5,5,6
 64 -33 64 -33 64 0 c 4,7,8
 64 184 64 184 196 316 c 5,9,-1
 286 226 l 5,10,11
 216 156 216 156 198 64 c 5,12,-1
 448 64 l 5,13,-1
 448 444 l 5,14,15
 479 448 479 448 512 448 c 4,16,17
 696 448 696 448 828 316 c 5,18,-1
 738 226 l 5,19,20
 668 296 668 296 576 314 c 5,21,-1
 576 64 l 5,22,-1
 960 64 l 5,23,-1
 960 -64 l 5,0,-1
EndSplineSet
Validated: 1025
EndChar

StartChar: five
Encoding: 53 53 26
Width: 1024
Flags: W
LayerCount: 2
Fore
SplineSet
576 448 m 5,0,-1
 576 64 l 5,1,-1
 960 64 l 5,2,-1
 960 -64 l 5,3,-1
 576 -64 l 5,4,-1
 576 -444 l 5,5,6
 545 -448 545 -448 512 -448 c 4,7,8
 328 -448 328 -448 196 -316 c 5,9,-1
 286 -226 l 5,10,11
 356 -296 356 -296 448 -314 c 5,12,-1
 448 -64 l 5,13,-1
 68 -64 l 5,14,15
 64 -33 64 -33 64 0 c 4,16,17
 64 184 64 184 196 316 c 5,18,-1
 286 226 l 5,19,20
 216 156 216 156 198 64 c 5,21,-1
 448 64 l 5,22,-1
 448 448 l 5,23,-1
 576 448 l 5,0,-1
EndSplineSet
Validated: 1025
EndChar

StartChar: six
Encoding: 54 54 27
Width: 1024
Flags: W
LayerCount: 2
Fore
SplineSet
64 64 m 5,0,-1
 448 64 l 5,1,-1
 448 448 l 5,2,-1
 576 448 l 5,3,-1
 576 64 l 5,4,-1
 956 64 l 5,5,6
 960 33 960 33 960 0 c 4,7,8
 960 -184 960 -184 828 -316 c 5,9,-1
 738 -226 l 5,10,11
 808 -156 808 -156 826 -64 c 5,12,-1
 576 -64 l 5,13,-1
 576 -444 l 5,14,15
 545 -448 545 -448 512 -448 c 4,16,17
 328 -448 328 -448 196 -316 c 5,18,-1
 286 -226 l 5,19,20
 356 -296 356 -296 448 -314 c 5,21,-1
 448 -64 l 5,22,-1
 64 -64 l 5,23,-1
 64 64 l 5,0,-1
EndSplineSet
Validated: 1025
EndChar

StartChar: seven
Encoding: 55 55 28
Width: 1024
Flags: W
LayerCount: 2
Fore
SplineSet
448 -448 m 5,0,-1
 448 -64 l 5,1,-1
 64 -64 l 5,2,-1
 64 64 l 5,3,-1
 448 64 l 5,4,-1
 448 444 l 5,5,6
 479 448 479 448 512 448 c 4,7,8
 696 448 696 448 828 316 c 5,9,-1
 738 226 l 5,10,11
 668 296 668 296 576 314 c 5,12,-1
 576 64 l 5,13,-1
 956 64 l 5,14,15
 960 33 960 33 960 0 c 4,16,17
 960 -184 960 -184 828 -316 c 5,18,-1
 738 -226 l 5,19,20
 808 -156 808 -156 826 -64 c 5,21,-1
 576 -64 l 5,22,-1
 576 -448 l 5,23,-1
 448 -448 l 5,0,-1
EndSplineSet
Validated: 1025
EndChar

StartChar: eight
Encoding: 56 56 29
Width: 1024
Flags: W
LayerCount: 2
Fore
SplineSet
576 -64 m 5,0,-1
 576 -444 l 5,1,2
 545 -448 545 -448 512 -448 c 4,3,4
 328 -448 328 -448 196 -316 c 5,5,6
 196 -316 196 -316 286 -226 c 5,7,8
 356 -296 356 -296 448 -314 c 5,9,10
 448 -314 448 -314 448 -64 c 5,11,-1
 68 -64 l 5,12,13
 64 -33 64 -33 64 0 c 4,14,15
 64 184 64 184 196 316 c 5,16,17
 196 316 196 316 286 226 c 5,18,19
 216 156 216 156 198 64 c 5,20,21
 198 64 198 64 448 64 c 5,22,-1
 448 444 l 5,23,24
 479 448 479 448 512 448 c 4,25,26
 696 448 696 448 828 316 c 5,27,28
 828 316 828 316 738 226 c 5,29,30
 668 296 668 296 576 314 c 5,31,32
 576 314 576 314 576 64 c 5,33,-1
 960 64 l 5,34,-1
 960 -64 l 5,35,-1
 576 -64 l 5,0,-1
EndSplineSet
Validated: 1025
EndChar

StartChar: nine
Encoding: 57 57 30
Width: 1024
Flags: W
LayerCount: 2
Fore
SplineSet
576 64 m 5,0,-1
 956 64 l 5,1,2
 960 33 960 33 960 0 c 4,3,4
 960 -184 960 -184 828 -316 c 5,5,6
 828 -316 828 -316 738 -226 c 5,7,8
 808 -156 808 -156 826 -64 c 5,9,10
 826 -64 826 -64 576 -64 c 5,11,-1
 576 -444 l 5,12,13
 545 -448 545 -448 512 -448 c 4,14,15
 328 -448 328 -448 196 -316 c 5,16,17
 196 -316 196 -316 286 -226 c 5,18,19
 356 -296 356 -296 448 -314 c 5,20,21
 448 -314 448 -314 448 -64 c 5,22,-1
 68 -64 l 5,23,24
 64 -33 64 -33 64 0 c 4,25,26
 64 184 64 184 196 316 c 5,27,28
 196 316 196 316 286 226 c 5,29,30
 216 156 216 156 198 64 c 5,31,32
 198 64 198 64 448 64 c 5,33,-1
 448 448 l 5,34,-1
 576 448 l 5,35,-1
 576 64 l 5,0,-1
EndSplineSet
Validated: 1025
EndChar

StartChar: colon
Encoding: 58 58 31
Width: 1024
Flags: W
LayerCount: 2
Fore
SplineSet
448 64 m 5,0,-1
 448 444 l 5,1,2
 479 448 479 448 512 448 c 4,3,4
 696 448 696 448 828 316 c 5,5,6
 828 316 828 316 738 226 c 5,7,8
 668 296 668 296 576 314 c 5,9,10
 576 314 576 314 576 64 c 5,11,-1
 956 64 l 5,12,13
 960 33 960 33 960 0 c 4,14,15
 960 -184 960 -184 828 -316 c 5,16,17
 828 -316 828 -316 738 -226 c 5,18,19
 808 -156 808 -156 826 -64 c 5,20,21
 826 -64 826 -64 576 -64 c 5,22,-1
 576 -444 l 5,23,24
 545 -448 545 -448 512 -448 c 4,25,26
 328 -448 328 -448 196 -316 c 5,27,28
 196 -316 196 -316 286 -226 c 5,29,30
 356 -296 356 -296 448 -314 c 5,31,32
 448 -314 448 -314 448 -64 c 5,33,-1
 64 -64 l 5,34,-1
 64 64 l 5,35,-1
 448 64 l 5,0,-1
EndSplineSet
Validated: 1025
EndChar

StartChar: semicolon
Encoding: 59 59 32
Width: 1024
Flags: W
LayerCount: 2
Fore
SplineSet
448 -64 m 5,0,-1
 68 -64 l 5,1,2
 64 -33 64 -33 64 0 c 4,3,4
 64 184 64 184 196 316 c 5,5,6
 196 316 196 316 286 226 c 5,7,8
 216 156 216 156 198 64 c 5,9,10
 198 64 198 64 448 64 c 5,11,-1
 448 444 l 5,12,13
 479 448 479 448 512 448 c 4,14,15
 696 448 696 448 828 316 c 5,16,17
 828 316 828 316 738 226 c 5,18,19
 668 296 668 296 576 314 c 5,20,21
 576 314 576 314 576 64 c 5,22,-1
 956 64 l 5,23,24
 960 33 960 33 960 0 c 4,25,26
 960 -184 960 -184 828 -316 c 5,27,28
 828 -316 828 -316 738 -226 c 5,29,30
 808 -156 808 -156 826 -64 c 5,31,32
 826 -64 826 -64 576 -64 c 5,33,-1
 576 -448 l 5,34,-1
 448 -448 l 5,35,-1
 448 -64 l 5,0,-1
EndSplineSet
Validated: 1025
EndChar

StartChar: less
Encoding: 60 60 33
Width: 1024
Flags: W
LayerCount: 2
Fore
SplineSet
448 64 m 1,0,-1
 448 444 l 1,1,2
 479 448 479 448 512 448 c 0,3,4
 696 448 696 448 828 316 c 1,5,6
 828 316 828 316 738 226 c 1,7,8
 668 296 668 296 576 314 c 1,9,10
 576 314 576 314 576 64 c 1,11,-1
 960 64 l 1,12,-1
 960 -64 l 1,13,-1
 576 -64 l 1,14,-1
 576 -444 l 1,15,16
 545 -448 545 -448 512 -448 c 0,17,18
 328 -448 328 -448 196 -316 c 1,19,20
 196 -316 196 -316 286 -226 c 1,21,22
 356 -296 356 -296 448 -314 c 1,23,24
 448 -314 448 -314 448 -64 c 1,25,-1
 64 -64 l 1,26,-1
 64 64 l 1,27,-1
 448 64 l 1,0,-1
EndSplineSet
Validated: 1025
EndChar

StartChar: equal
Encoding: 61 61 34
Width: 1024
Flags: W
LayerCount: 2
Fore
SplineSet
448 -64 m 1,0,-1
 68 -64 l 1,1,2
 64 -33 64 -33 64 0 c 0,3,4
 64 184 64 184 196 316 c 1,5,6
 196 316 196 316 286 226 c 1,7,8
 216 156 216 156 198 64 c 1,9,10
 198 64 198 64 448 64 c 1,11,-1
 448 448 l 1,12,-1
 576 448 l 1,13,-1
 576 64 l 1,14,-1
 956 64 l 1,15,16
 960 33 960 33 960 0 c 0,17,18
 960 -184 960 -184 828 -316 c 1,19,20
 828 -316 828 -316 738 -226 c 1,21,22
 808 -156 808 -156 826 -64 c 1,23,24
 826 -64 826 -64 576 -64 c 1,25,-1
 576 -448 l 1,26,-1
 448 -448 l 1,27,-1
 448 -64 l 1,0,-1
EndSplineSet
Validated: 1025
EndChar

StartChar: greater
Encoding: 62 62 35
Width: 1024
Flags: W
LayerCount: 2
Fore
SplineSet
576 -64 m 1,0,-1
 576 -444 l 1,1,2
 545 -448 545 -448 512 -448 c 0,3,4
 328 -448 328 -448 196 -316 c 1,5,6
 196 -316 196 -316 286 -226 c 1,7,8
 356 -296 356 -296 448 -314 c 1,9,10
 448 -314 448 -314 448 -64 c 1,11,-1
 68 -64 l 1,12,13
 64 -33 64 -33 64 0 c 0,14,15
 64 184 64 184 196 316 c 1,16,17
 196 316 196 316 286 226 c 1,18,19
 216 156 216 156 198 64 c 1,20,21
 198 64 198 64 448 64 c 1,22,-1
 448 444 l 1,23,24
 479 448 479 448 512 448 c 0,25,26
 696 448 696 448 828 316 c 1,27,28
 828 316 828 316 738 226 c 1,29,30
 668 296 668 296 576 314 c 1,31,32
 576 314 576 314 576 64 c 1,33,-1
 956 64 l 1,34,35
 960 33 960 33 960 0 c 0,36,37
 960 -184 960 -184 828 -316 c 1,38,39
 828 -316 828 -316 738 -226 c 1,40,41
 808 -156 808 -156 826 -64 c 1,42,43
 826 -64 826 -64 576 -64 c 1,0,-1
EndSplineSet
Validated: 1025
EndChar

StartChar: question
Encoding: 63 63 36
Width: 1024
Flags: W
LayerCount: 2
Fore
SplineSet
448 -64 m 5,0,-1
 198 -64 l 5,1,2
 216 -156 216 -156 286 -226 c 5,3,-1
 196 -316 l 5,4,5
 64 -184 64 -184 64 0 c 4,6,7
 64 33 64 33 68 64 c 5,8,-1
 448 64 l 5,9,-1
 448 314 l 5,10,11
 356 296 356 296 286 226 c 5,12,-1
 196 316 l 5,13,14
 328 448 328 448 512 448 c 4,15,16
 545 448 545 448 576 444 c 5,17,-1
 576 64 l 5,18,-1
 826 64 l 5,19,20
 808 156 808 156 738 226 c 5,21,-1
 828 316 l 5,22,23
 960 184 960 184 960 0 c 4,24,25
 960 -33 960 -33 956 -64 c 5,26,-1
 576 -64 l 5,27,-1
 576 -314 l 5,28,29
 668 -296 668 -296 738 -226 c 5,30,-1
 828 -316 l 5,31,32
 696 -448 696 -448 512 -448 c 4,33,34
 479 -448 479 -448 448 -444 c 5,35,-1
 448 -64 l 5,0,-1
EndSplineSet
Validated: 1025
EndChar

StartChar: amacron
Encoding: 257 257 37
Width: 1024
Flags: W
LayerCount: 2
Fore
SplineSet
512 320 m 1,0,1
 512 320 512 320 512 448 c 1,2,3
 697 448 697 448 828.5 316.5 c 128,-1,4
 960 185 960 185 960 0 c 128,-1,5
 960 -185 960 -185 828.5 -316.5 c 128,-1,6
 697 -448 697 -448 512 -448 c 2,7,8
 512 -448 512 -448 64 -448 c 1,9,-1
 64 -320 l 1,10,-1
 512 -320 l 2,11,12
 645 -320 645 -320 738.5 -226.5 c 128,-1,13
 832 -133 832 -133 832 0 c 128,-1,14
 832 133 832 133 738.5 226.5 c 128,-1,15
 645 320 645 320 512 320 c 1,0,1
EndSplineSet
Validated: 1
EndChar

StartChar: Abreve
Encoding: 258 258 38
Width: 1024
Flags: W
LayerCount: 2
Fore
SplineSet
192 0 m 1,0,1
 192 0 192 0 64 0 c 1,2,3
 64 185 64 185 195.5 316.5 c 128,-1,4
 327 448 327 448 512 448 c 128,-1,5
 697 448 697 448 828.5 316.5 c 128,-1,6
 960 185 960 185 960 0 c 2,7,8
 960 0 960 0 960 -448 c 1,9,-1
 832 -448 l 1,10,-1
 832 0 l 2,11,12
 832 133 832 133 738.5 226.5 c 128,-1,13
 645 320 645 320 512 320 c 128,-1,14
 379 320 379 320 285.5 226.5 c 128,-1,15
 192 133 192 133 192 0 c 1,0,1
EndSplineSet
Validated: 1
EndChar

StartChar: abreve
Encoding: 259 259 39
Width: 1024
Flags: W
LayerCount: 2
Fore
SplineSet
512 -320 m 1,0,1
 512 -320 512 -320 512 -448 c 1,2,3
 327 -448 327 -448 195.5 -316.5 c 128,-1,4
 64 -185 64 -185 64 0 c 128,-1,5
 64 185 64 185 195.5 316.5 c 128,-1,6
 327 448 327 448 512 448 c 2,7,8
 512 448 512 448 960 448 c 1,9,-1
 960 320 l 1,10,-1
 512 320 l 2,11,12
 379 320 379 320 285.5 226.5 c 128,-1,13
 192 133 192 133 192 0 c 128,-1,14
 192 -133 192 -133 285.5 -226.5 c 128,-1,15
 379 -320 379 -320 512 -320 c 1,0,1
EndSplineSet
Validated: 1
EndChar

StartChar: Aogonek
Encoding: 260 260 40
Width: 1024
Flags: W
LayerCount: 2
Fore
SplineSet
192 0 m 1,0,1
 192 -133 192 -133 285.5 -226.5 c 128,-1,2
 379 -320 379 -320 512 -320 c 128,-1,3
 645 -320 645 -320 738.5 -226.5 c 128,-1,4
 832 -133 832 -133 832 0 c 2,5,6
 832 0 832 0 832 448 c 1,7,-1
 960 448 l 1,8,-1
 960 0 l 2,9,10
 960 -185 960 -185 828.5 -316.5 c 128,-1,11
 697 -448 697 -448 512 -448 c 128,-1,12
 327 -448 327 -448 195.5 -316.5 c 128,-1,13
 64 -185 64 -185 64 0 c 1,14,15
 192 0 192 0 192 0 c 1,0,1
EndSplineSet
Validated: 1
EndChar

StartChar: aogonek
Encoding: 261 261 41
Width: 1024
Flags: W
LayerCount: 2
Fore
SplineSet
512 -320 m 1,0,1
 645 -320 645 -320 738.5 -226.5 c 128,-1,2
 832 -133 832 -133 832 0 c 128,-1,3
 832 133 832 133 738.5 226.5 c 128,-1,4
 645 320 645 320 512 320 c 2,5,6
 512 320 512 320 64 320 c 1,7,-1
 64 448 l 1,8,-1
 512 448 l 2,9,10
 697 448 697 448 828.5 316.5 c 128,-1,11
 960 185 960 185 960 0 c 128,-1,12
 960 -185 960 -185 828.5 -316.5 c 128,-1,13
 697 -448 697 -448 512 -448 c 1,14,15
 512 -320 512 -320 512 -320 c 1,0,1
EndSplineSet
Validated: 1
EndChar

StartChar: Cacute
Encoding: 262 262 42
Width: 1024
Flags: W
LayerCount: 2
Fore
SplineSet
832 0 m 1,0,1
 832 133 832 133 738.5 226.5 c 128,-1,2
 645 320 645 320 512 320 c 128,-1,3
 379 320 379 320 285.5 226.5 c 128,-1,4
 192 133 192 133 192 0 c 2,5,6
 192 0 192 0 192 -448 c 1,7,-1
 64 -448 l 1,8,-1
 64 0 l 2,9,10
 64 185 64 185 195.5 316.5 c 128,-1,11
 327 448 327 448 512 448 c 128,-1,12
 697 448 697 448 828.5 316.5 c 128,-1,13
 960 185 960 185 960 0 c 1,14,15
 832 0 832 0 832 0 c 1,0,1
EndSplineSet
Validated: 1
EndChar

StartChar: cacute
Encoding: 263 263 43
Width: 1024
Flags: W
LayerCount: 2
Fore
SplineSet
512 320 m 1,0,1
 379 320 379 320 285.5 226.5 c 128,-1,2
 192 133 192 133 192 0 c 128,-1,3
 192 -133 192 -133 285.5 -226.5 c 128,-1,4
 379 -320 379 -320 512 -320 c 2,5,6
 512 -320 512 -320 960 -320 c 1,7,-1
 960 -448 l 1,8,-1
 512 -448 l 2,9,10
 327 -448 327 -448 195.5 -316.5 c 128,-1,11
 64 -185 64 -185 64 0 c 128,-1,12
 64 185 64 185 195.5 316.5 c 128,-1,13
 327 448 327 448 512 448 c 1,14,15
 512 320 512 320 512 320 c 1,0,1
EndSplineSet
Validated: 1
EndChar

StartChar: Ccircumflex
Encoding: 264 264 44
Width: 1024
Flags: W
LayerCount: 2
Fore
SplineSet
832 0 m 1,0,-1
 960 0 l 1,1,2
 960 -185 960 -185 828.5 -316.5 c 128,-1,3
 697 -448 697 -448 512 -448 c 128,-1,4
 327 -448 327 -448 195.5 -316.5 c 128,-1,5
 64 -185 64 -185 64 0 c 2,6,-1
 64 448 l 1,7,-1
 192 448 l 1,8,-1
 192 0 l 2,9,10
 192 -133 192 -133 285.5 -226.5 c 128,-1,11
 379 -320 379 -320 512 -320 c 128,-1,12
 645 -320 645 -320 738.5 -226.5 c 128,-1,13
 832 -133 832 -133 832 0 c 1,0,-1
832 448 m 1,14,-1
 960 448 l 1,15,-1
 960 320 l 1,16,-1
 832 320 l 1,17,-1
 832 448 l 1,14,-1
EndSplineSet
Validated: 1
EndChar

StartChar: ccircumflex
Encoding: 265 265 45
Width: 1024
Flags: W
LayerCount: 2
Fore
SplineSet
512 320 m 1,0,-1
 512 448 l 1,1,2
 697 448 697 448 828.5 316.5 c 128,-1,3
 960 185 960 185 960 0 c 128,-1,4
 960 -185 960 -185 828.5 -316.5 c 128,-1,5
 697 -448 697 -448 512 -448 c 2,6,-1
 64 -448 l 1,7,-1
 64 -320 l 1,8,-1
 512 -320 l 2,9,10
 645 -320 645 -320 738.5 -226.5 c 128,-1,11
 832 -133 832 -133 832 0 c 128,-1,12
 832 133 832 133 738.5 226.5 c 128,-1,13
 645 320 645 320 512 320 c 1,0,-1
64 320 m 1,14,-1
 64 448 l 1,15,-1
 192 448 l 1,16,-1
 192 320 l 1,17,-1
 64 320 l 1,14,-1
EndSplineSet
Validated: 1
EndChar

StartChar: Cdotaccent
Encoding: 266 266 46
Width: 1024
Flags: W
LayerCount: 2
Fore
SplineSet
192 0 m 1,0,-1
 64 0 l 1,1,2
 64 185 64 185 195.5 316.5 c 128,-1,3
 327 448 327 448 512 448 c 128,-1,4
 697 448 697 448 828.5 316.5 c 128,-1,5
 960 185 960 185 960 0 c 2,6,-1
 960 -448 l 1,7,-1
 832 -448 l 1,8,-1
 832 0 l 2,9,10
 832 133 832 133 738.5 226.5 c 128,-1,11
 645 320 645 320 512 320 c 128,-1,12
 379 320 379 320 285.5 226.5 c 128,-1,13
 192 133 192 133 192 0 c 1,0,-1
192 -448 m 1,14,-1
 64 -448 l 1,15,-1
 64 -320 l 1,16,-1
 192 -320 l 1,17,-1
 192 -448 l 1,14,-1
EndSplineSet
Validated: 1
EndChar

StartChar: cdotaccent
Encoding: 267 267 47
Width: 1024
Flags: W
LayerCount: 2
Fore
SplineSet
512 -320 m 1,0,-1
 512 -448 l 1,1,2
 327 -448 327 -448 195.5 -316.5 c 128,-1,3
 64 -185 64 -185 64 0 c 128,-1,4
 64 185 64 185 195.5 316.5 c 128,-1,5
 327 448 327 448 512 448 c 2,6,-1
 960 448 l 1,7,-1
 960 320 l 1,8,-1
 512 320 l 2,9,10
 379 320 379 320 285.5 226.5 c 128,-1,11
 192 133 192 133 192 0 c 128,-1,12
 192 -133 192 -133 285.5 -226.5 c 128,-1,13
 379 -320 379 -320 512 -320 c 1,0,-1
960 -320 m 1,14,-1
 960 -448 l 1,15,-1
 832 -448 l 1,16,-1
 832 -320 l 1,17,-1
 960 -320 l 1,14,-1
EndSplineSet
Validated: 1
EndChar

StartChar: Ccaron
Encoding: 268 268 48
Width: 1024
Flags: W
LayerCount: 2
Fore
SplineSet
192 0 m 1,0,1
 192 -133 192 -133 285.5 -226.5 c 128,-1,2
 379 -320 379 -320 512 -320 c 128,-1,3
 645 -320 645 -320 738.5 -226.5 c 128,-1,4
 832 -133 832 -133 832 0 c 2,5,6
 832 0 832 0 832 448 c 1,7,-1
 960 448 l 1,8,-1
 960 0 l 2,9,10
 960 -185 960 -185 828.5 -316.5 c 128,-1,11
 697 -448 697 -448 512 -448 c 128,-1,12
 327 -448 327 -448 195.5 -316.5 c 128,-1,13
 64 -185 64 -185 64 0 c 1,14,15
 64 0 64 0 192 0 c 1,0,1
192 448 m 1,16,-1
 192 320 l 1,17,-1
 64 320 l 1,18,-1
 64 448 l 1,19,-1
 192 448 l 1,16,-1
EndSplineSet
Validated: 1
EndChar

StartChar: ccaron
Encoding: 269 269 49
Width: 1024
Flags: W
LayerCount: 2
Fore
SplineSet
512 -320 m 1,0,1
 645 -320 645 -320 738.5 -226.5 c 128,-1,2
 832 -133 832 -133 832 0 c 128,-1,3
 832 133 832 133 738.5 226.5 c 128,-1,4
 645 320 645 320 512 320 c 2,5,6
 512 320 512 320 64 320 c 1,7,-1
 64 448 l 1,8,-1
 512 448 l 2,9,10
 697 448 697 448 828.5 316.5 c 128,-1,11
 960 185 960 185 960 0 c 128,-1,12
 960 -185 960 -185 828.5 -316.5 c 128,-1,13
 697 -448 697 -448 512 -448 c 1,14,15
 512 -448 512 -448 512 -320 c 1,0,1
64 -320 m 1,16,-1
 192 -320 l 1,17,-1
 192 -448 l 1,18,-1
 64 -448 l 1,19,-1
 64 -320 l 1,16,-1
EndSplineSet
Validated: 1
EndChar

StartChar: Dcaron
Encoding: 270 270 50
Width: 1024
Flags: W
LayerCount: 2
Fore
SplineSet
832 0 m 1,0,1
 832 133 832 133 738.5 226.5 c 128,-1,2
 645 320 645 320 512 320 c 128,-1,3
 379 320 379 320 285.5 226.5 c 128,-1,4
 192 133 192 133 192 0 c 2,5,6
 192 0 192 0 192 -448 c 1,7,-1
 64 -448 l 1,8,-1
 64 0 l 2,9,10
 64 185 64 185 195.5 316.5 c 128,-1,11
 327 448 327 448 512 448 c 128,-1,12
 697 448 697 448 828.5 316.5 c 128,-1,13
 960 185 960 185 960 0 c 1,14,15
 960 0 960 0 832 0 c 1,0,1
832 -448 m 1,16,-1
 832 -320 l 1,17,-1
 960 -320 l 1,18,-1
 960 -448 l 1,19,-1
 832 -448 l 1,16,-1
EndSplineSet
Validated: 1
EndChar

StartChar: dcaron
Encoding: 271 271 51
Width: 1024
Flags: W
LayerCount: 2
Fore
SplineSet
512 320 m 1,0,1
 379 320 379 320 285.5 226.5 c 128,-1,2
 192 133 192 133 192 0 c 128,-1,3
 192 -133 192 -133 285.5 -226.5 c 128,-1,4
 379 -320 379 -320 512 -320 c 2,5,6
 512 -320 512 -320 960 -320 c 1,7,-1
 960 -448 l 1,8,-1
 512 -448 l 2,9,10
 327 -448 327 -448 195.5 -316.5 c 128,-1,11
 64 -185 64 -185 64 0 c 128,-1,12
 64 185 64 185 195.5 316.5 c 128,-1,13
 327 448 327 448 512 448 c 1,14,15
 512 448 512 448 512 320 c 1,0,1
960 320 m 1,16,-1
 832 320 l 1,17,-1
 832 448 l 1,18,-1
 960 448 l 1,19,-1
 960 320 l 1,16,-1
EndSplineSet
Validated: 1
EndChar

StartChar: Dcroat
Encoding: 272 272 52
Width: 1024
Flags: W
LayerCount: 2
Fore
SplineSet
576 448 m 5,0,-1
 576 320 l 5,1,-1
 192 320 l 5,2,-1
 192 0 l 6,3,4
 192 -133 192 -133 285.5 -226.5 c 132,-1,5
 379 -320 379 -320 512 -320 c 132,-1,6
 645 -320 645 -320 738.5 -226.5 c 132,-1,7
 832 -133 832 -133 832 0 c 5,8,-1
 960 0 l 5,9,10
 960 -185 960 -185 828.5 -316.5 c 132,-1,11
 697 -448 697 -448 512 -448 c 132,-1,12
 327 -448 327 -448 195.5 -316.5 c 132,-1,13
 64 -185 64 -185 64 0 c 6,14,-1
 64 448 l 5,15,-1
 576 448 l 5,0,-1
EndSplineSet
Validated: 1
EndChar

StartChar: dcroat
Encoding: 273 273 53
Width: 1024
Flags: W
LayerCount: 2
Fore
SplineSet
64 64 m 5,0,-1
 192 64 l 5,1,-1
 192 -320 l 5,2,-1
 512 -320 l 6,3,4
 645 -320 645 -320 738.5 -226.5 c 132,-1,5
 832 -133 832 -133 832 0 c 132,-1,6
 832 133 832 133 738.5 226.5 c 132,-1,7
 645 320 645 320 512 320 c 5,8,-1
 512 448 l 5,9,10
 697 448 697 448 828.5 316.5 c 132,-1,11
 960 185 960 185 960 0 c 132,-1,12
 960 -185 960 -185 828.5 -316.5 c 132,-1,13
 697 -448 697 -448 512 -448 c 6,14,-1
 64 -448 l 5,15,-1
 64 64 l 5,0,-1
EndSplineSet
Validated: 1
EndChar

StartChar: Emacron
Encoding: 274 274 54
Width: 1024
Flags: W
LayerCount: 2
Fore
SplineSet
448 -448 m 5,0,-1
 448 -320 l 5,1,-1
 832 -320 l 5,2,-1
 832 0 l 6,3,4
 832 133 832 133 738.5 226.5 c 132,-1,5
 645 320 645 320 512 320 c 132,-1,6
 379 320 379 320 285.5 226.5 c 132,-1,7
 192 133 192 133 192 0 c 5,8,-1
 64 0 l 5,9,10
 64 185 64 185 195.5 316.5 c 132,-1,11
 327 448 327 448 512 448 c 132,-1,12
 697 448 697 448 828.5 316.5 c 132,-1,13
 960 185 960 185 960 0 c 6,14,-1
 960 -448 l 5,15,-1
 448 -448 l 5,0,-1
EndSplineSet
Validated: 1
EndChar

StartChar: emacron
Encoding: 275 275 55
Width: 1024
Flags: W
LayerCount: 2
Fore
SplineSet
960 -64 m 5,0,-1
 832 -64 l 5,1,-1
 832 320 l 5,2,-1
 512 320 l 6,3,4
 379 320 379 320 285.5 226.5 c 132,-1,5
 192 133 192 133 192 0 c 132,-1,6
 192 -133 192 -133 285.5 -226.5 c 132,-1,7
 379 -320 379 -320 512 -320 c 5,8,-1
 512 -448 l 5,9,10
 327 -448 327 -448 195.5 -316.5 c 132,-1,11
 64 -185 64 -185 64 0 c 132,-1,12
 64 185 64 185 195.5 316.5 c 132,-1,13
 327 448 327 448 512 448 c 6,14,-1
 960 448 l 5,15,-1
 960 -64 l 5,0,-1
EndSplineSet
Validated: 1
EndChar

StartChar: Ebreve
Encoding: 276 276 56
Width: 1024
Flags: W
LayerCount: 2
Fore
SplineSet
448 448 m 1,0,-1
 960 448 l 1,1,-1
 960 0 l 2,2,3
 960 -185 960 -185 828.5 -316.5 c 128,-1,4
 697 -448 697 -448 512 -448 c 128,-1,5
 327 -448 327 -448 195.5 -316.5 c 128,-1,6
 64 -185 64 -185 64 0 c 1,7,8
 64 0 64 0 192 0 c 1,9,10
 192 -133 192 -133 285.5 -226.5 c 128,-1,11
 379 -320 379 -320 512 -320 c 128,-1,12
 645 -320 645 -320 738.5 -226.5 c 128,-1,13
 832 -133 832 -133 832 0 c 2,14,15
 832 0 832 0 832 320 c 1,16,-1
 448 320 l 1,17,-1
 448 448 l 1,0,-1
EndSplineSet
Validated: 1
EndChar

StartChar: ebreve
Encoding: 277 277 57
Width: 1024
Flags: W
LayerCount: 2
Fore
SplineSet
64 -64 m 1,0,-1
 64 448 l 1,1,-1
 512 448 l 2,2,3
 697 448 697 448 828.5 316.5 c 128,-1,4
 960 185 960 185 960 0 c 128,-1,5
 960 -185 960 -185 828.5 -316.5 c 128,-1,6
 697 -448 697 -448 512 -448 c 1,7,8
 512 -448 512 -448 512 -320 c 1,9,10
 645 -320 645 -320 738.5 -226.5 c 128,-1,11
 832 -133 832 -133 832 0 c 128,-1,12
 832 133 832 133 738.5 226.5 c 128,-1,13
 645 320 645 320 512 320 c 2,14,15
 512 320 512 320 192 320 c 1,16,-1
 192 -64 l 1,17,-1
 64 -64 l 1,0,-1
EndSplineSet
Validated: 1
EndChar

StartChar: Edotaccent
Encoding: 278 278 58
Width: 1024
Flags: W
LayerCount: 2
Fore
SplineSet
576 -448 m 1,0,-1
 64 -448 l 1,1,-1
 64 0 l 2,2,3
 64 185 64 185 195.5 316.5 c 128,-1,4
 327 448 327 448 512 448 c 128,-1,5
 697 448 697 448 828.5 316.5 c 128,-1,6
 960 185 960 185 960 0 c 1,7,8
 960 0 960 0 832 0 c 1,9,10
 832 133 832 133 738.5 226.5 c 128,-1,11
 645 320 645 320 512 320 c 128,-1,12
 379 320 379 320 285.5 226.5 c 128,-1,13
 192 133 192 133 192 0 c 2,14,15
 192 0 192 0 192 -320 c 1,16,-1
 576 -320 l 1,17,-1
 576 -448 l 1,0,-1
EndSplineSet
Validated: 1
EndChar

StartChar: edotaccent
Encoding: 279 279 59
Width: 1024
Flags: W
LayerCount: 2
Fore
SplineSet
960 64 m 1,0,-1
 960 -448 l 1,1,-1
 512 -448 l 2,2,3
 327 -448 327 -448 195.5 -316.5 c 128,-1,4
 64 -185 64 -185 64 0 c 128,-1,5
 64 185 64 185 195.5 316.5 c 128,-1,6
 327 448 327 448 512 448 c 1,7,8
 512 448 512 448 512 320 c 1,9,10
 379 320 379 320 285.5 226.5 c 128,-1,11
 192 133 192 133 192 0 c 128,-1,12
 192 -133 192 -133 285.5 -226.5 c 128,-1,13
 379 -320 379 -320 512 -320 c 2,14,15
 512 -320 512 -320 832 -320 c 1,16,-1
 832 64 l 1,17,-1
 960 64 l 1,0,-1
EndSplineSet
Validated: 1
EndChar

StartChar: Eogonek
Encoding: 280 280 60
Width: 1024
Flags: W
LayerCount: 2
Fore
SplineSet
576 448 m 1,0,-1
 576 320 l 1,1,-1
 192 320 l 1,2,-1
 192 0 l 2,3,4
 192 -133 192 -133 285.5 -226.5 c 128,-1,5
 379 -320 379 -320 512 -320 c 128,-1,6
 645 -320 645 -320 738.5 -226.5 c 128,-1,7
 832 -133 832 -133 832 0 c 1,8,-1
 960 0 l 1,9,10
 960 -185 960 -185 828.5 -316.5 c 128,-1,11
 697 -448 697 -448 512 -448 c 128,-1,12
 327 -448 327 -448 195.5 -316.5 c 128,-1,13
 64 -185 64 -185 64 0 c 2,14,-1
 64 448 l 1,15,-1
 576 448 l 1,0,-1
832 448 m 1,16,-1
 960 448 l 1,17,-1
 960 320 l 1,18,-1
 832 320 l 1,19,-1
 832 448 l 1,16,-1
EndSplineSet
Validated: 1025
EndChar

StartChar: eogonek
Encoding: 281 281 61
Width: 1024
Flags: W
LayerCount: 2
Fore
SplineSet
64 64 m 1,0,-1
 192 64 l 1,1,-1
 192 -320 l 1,2,-1
 512 -320 l 2,3,4
 645 -320 645 -320 738.5 -226.5 c 128,-1,5
 832 -133 832 -133 832 0 c 128,-1,6
 832 133 832 133 738.5 226.5 c 128,-1,7
 645 320 645 320 512 320 c 1,8,-1
 512 448 l 1,9,10
 697 448 697 448 828.5 316.5 c 128,-1,11
 960 185 960 185 960 0 c 128,-1,12
 960 -185 960 -185 828.5 -316.5 c 128,-1,13
 697 -448 697 -448 512 -448 c 2,14,-1
 64 -448 l 1,15,-1
 64 64 l 1,0,-1
64 320 m 1,16,-1
 64 448 l 1,17,-1
 192 448 l 1,18,-1
 192 320 l 1,19,-1
 64 320 l 1,16,-1
EndSplineSet
Validated: 1025
EndChar

StartChar: Ecaron
Encoding: 282 282 62
Width: 1024
Flags: W
LayerCount: 2
Fore
SplineSet
448 -448 m 1,0,-1
 448 -320 l 1,1,-1
 832 -320 l 1,2,-1
 832 0 l 2,3,4
 832 133 832 133 738.5 226.5 c 128,-1,5
 645 320 645 320 512 320 c 128,-1,6
 379 320 379 320 285.5 226.5 c 128,-1,7
 192 133 192 133 192 0 c 1,8,-1
 64 0 l 1,9,10
 64 185 64 185 195.5 316.5 c 128,-1,11
 327 448 327 448 512 448 c 128,-1,12
 697 448 697 448 828.5 316.5 c 128,-1,13
 960 185 960 185 960 0 c 2,14,-1
 960 -448 l 1,15,-1
 448 -448 l 1,0,-1
192 -448 m 1,16,-1
 64 -448 l 1,17,-1
 64 -320 l 1,18,-1
 192 -320 l 1,19,-1
 192 -448 l 1,16,-1
EndSplineSet
Validated: 1025
EndChar

StartChar: ecaron
Encoding: 283 283 63
Width: 1024
Flags: W
LayerCount: 2
Fore
SplineSet
960 -64 m 1,0,-1
 832 -64 l 1,1,-1
 832 320 l 1,2,-1
 512 320 l 2,3,4
 379 320 379 320 285.5 226.5 c 128,-1,5
 192 133 192 133 192 0 c 128,-1,6
 192 -133 192 -133 285.5 -226.5 c 128,-1,7
 379 -320 379 -320 512 -320 c 1,8,-1
 512 -448 l 1,9,10
 327 -448 327 -448 195.5 -316.5 c 128,-1,11
 64 -185 64 -185 64 0 c 128,-1,12
 64 185 64 185 195.5 316.5 c 128,-1,13
 327 448 327 448 512 448 c 2,14,-1
 960 448 l 1,15,-1
 960 -64 l 1,0,-1
960 -320 m 1,16,-1
 960 -448 l 1,17,-1
 832 -448 l 1,18,-1
 832 -320 l 1,19,-1
 960 -320 l 1,16,-1
EndSplineSet
Validated: 1025
EndChar

StartChar: Gcircumflex
Encoding: 284 284 64
Width: 1024
Flags: W
LayerCount: 2
Fore
SplineSet
448 448 m 1,0,-1
 960 448 l 1,1,-1
 960 0 l 2,2,3
 960 -185 960 -185 828.5 -316.5 c 128,-1,4
 697 -448 697 -448 512 -448 c 128,-1,5
 327 -448 327 -448 195.5 -316.5 c 128,-1,6
 64 -185 64 -185 64 0 c 1,7,8
 64 0 64 0 192 0 c 1,9,10
 192 -133 192 -133 285.5 -226.5 c 128,-1,11
 379 -320 379 -320 512 -320 c 128,-1,12
 645 -320 645 -320 738.5 -226.5 c 128,-1,13
 832 -133 832 -133 832 0 c 2,14,15
 832 0 832 0 832 320 c 1,16,-1
 448 320 l 1,17,-1
 448 448 l 1,0,-1
192 448 m 1,18,-1
 192 320 l 1,19,-1
 64 320 l 1,20,-1
 64 448 l 1,21,-1
 192 448 l 1,18,-1
EndSplineSet
Validated: 1025
EndChar

StartChar: gcircumflex
Encoding: 285 285 65
Width: 1024
Flags: W
LayerCount: 2
Fore
SplineSet
64 -64 m 1,0,-1
 64 448 l 1,1,-1
 512 448 l 2,2,3
 697 448 697 448 828.5 316.5 c 128,-1,4
 960 185 960 185 960 0 c 128,-1,5
 960 -185 960 -185 828.5 -316.5 c 128,-1,6
 697 -448 697 -448 512 -448 c 1,7,8
 512 -448 512 -448 512 -320 c 1,9,10
 645 -320 645 -320 738.5 -226.5 c 128,-1,11
 832 -133 832 -133 832 0 c 128,-1,12
 832 133 832 133 738.5 226.5 c 128,-1,13
 645 320 645 320 512 320 c 2,14,15
 512 320 512 320 192 320 c 1,16,-1
 192 -64 l 1,17,-1
 64 -64 l 1,0,-1
64 -320 m 1,18,-1
 192 -320 l 1,19,-1
 192 -448 l 1,20,-1
 64 -448 l 1,21,-1
 64 -320 l 1,18,-1
EndSplineSet
Validated: 1025
EndChar

StartChar: Gbreve
Encoding: 286 286 66
Width: 1024
Flags: W
LayerCount: 2
Fore
SplineSet
576 -448 m 1,0,-1
 64 -448 l 1,1,-1
 64 0 l 2,2,3
 64 185 64 185 195.5 316.5 c 128,-1,4
 327 448 327 448 512 448 c 128,-1,5
 697 448 697 448 828.5 316.5 c 128,-1,6
 960 185 960 185 960 0 c 1,7,8
 960 0 960 0 832 0 c 1,9,10
 832 133 832 133 738.5 226.5 c 128,-1,11
 645 320 645 320 512 320 c 128,-1,12
 379 320 379 320 285.5 226.5 c 128,-1,13
 192 133 192 133 192 0 c 2,14,15
 192 0 192 0 192 -320 c 1,16,-1
 576 -320 l 1,17,-1
 576 -448 l 1,0,-1
832 -448 m 1,18,-1
 832 -320 l 1,19,-1
 960 -320 l 1,20,-1
 960 -448 l 1,21,-1
 832 -448 l 1,18,-1
EndSplineSet
Validated: 1025
EndChar

StartChar: gbreve
Encoding: 287 287 67
Width: 1024
Flags: W
LayerCount: 2
Fore
SplineSet
960 64 m 1,0,-1
 960 -448 l 1,1,-1
 512 -448 l 2,2,3
 327 -448 327 -448 195.5 -316.5 c 128,-1,4
 64 -185 64 -185 64 0 c 128,-1,5
 64 185 64 185 195.5 316.5 c 128,-1,6
 327 448 327 448 512 448 c 1,7,8
 512 448 512 448 512 320 c 1,9,10
 379 320 379 320 285.5 226.5 c 128,-1,11
 192 133 192 133 192 0 c 128,-1,12
 192 -133 192 -133 285.5 -226.5 c 128,-1,13
 379 -320 379 -320 512 -320 c 2,14,15
 512 -320 512 -320 832 -320 c 1,16,-1
 832 64 l 1,17,-1
 960 64 l 1,0,-1
960 320 m 1,18,-1
 832 320 l 1,19,-1
 832 448 l 1,20,-1
 960 448 l 1,21,-1
 960 320 l 1,18,-1
EndSplineSet
Validated: 1025
EndChar

StartChar: Gdotaccent
Encoding: 288 288 68
Width: 1024
Flags: W
LayerCount: 2
Fore
SplineSet
826 -64 m 5,0,1
 826 -64 826 -64 198 -64 c 5,2,3
 216 -156 216 -156 286 -226 c 4,4,5
 380 -320 380 -320 512 -320 c 132,-1,6
 644 -320 644 -320 738 -226 c 4,7,8
 808 -156 808 -156 826 -64 c 5,0,1
192 64 m 5,9,-1
 956 64 l 5,10,11
 960 33 960 33 960 0 c 4,12,13
 960 -185 960 -185 828.5 -316.5 c 132,-1,14
 697 -448 697 -448 512 -448 c 132,-1,15
 327 -448 327 -448 195.5 -316.5 c 132,-1,16
 64 -185 64 -185 64 0 c 13,17,18
 64 0 64 0 64 448 c 5,19,-1
 192 448 l 5,20,-1
 192 64 l 5,9,-1
EndSplineSet
Validated: 1
EndChar

StartChar: gdotaccent
Encoding: 289 289 69
Width: 1024
Flags: W
LayerCount: 2
Fore
SplineSet
576 314 m 5,0,1
 576 314 576 314 576 -314 c 5,2,3
 668 -296 668 -296 738 -226 c 4,4,5
 832 -132 832 -132 832 0 c 132,-1,6
 832 132 832 132 738 226 c 4,7,8
 668 296 668 296 576 314 c 5,0,1
448 -320 m 5,9,-1
 448 444 l 5,10,11
 479 448 479 448 512 448 c 4,12,13
 697 448 697 448 828.5 316.5 c 132,-1,14
 960 185 960 185 960 0 c 132,-1,15
 960 -185 960 -185 828.5 -316.5 c 132,-1,16
 697 -448 697 -448 512 -448 c 13,17,18
 512 -448 512 -448 64 -448 c 5,19,-1
 64 -320 l 5,20,-1
 448 -320 l 5,9,-1
EndSplineSet
Validated: 1
EndChar

StartChar: uni0122
Encoding: 290 290 70
Width: 1024
Flags: W
LayerCount: 2
Fore
SplineSet
198 64 m 5,0,1
 198 64 198 64 826 64 c 5,2,3
 808 156 808 156 738 226 c 4,4,5
 644 320 644 320 512 320 c 132,-1,6
 380 320 380 320 286 226 c 4,7,8
 216 156 216 156 198 64 c 5,0,1
832 -64 m 5,9,-1
 68 -64 l 5,10,11
 64 -33 64 -33 64 0 c 4,12,13
 64 185 64 185 195.5 316.5 c 132,-1,14
 327 448 327 448 512 448 c 132,-1,15
 697 448 697 448 828.5 316.5 c 132,-1,16
 960 185 960 185 960 0 c 13,17,18
 960 0 960 0 960 -448 c 5,19,-1
 832 -448 l 5,20,-1
 832 -64 l 5,9,-1
EndSplineSet
Validated: 1
EndChar

StartChar: uni0123
Encoding: 291 291 71
Width: 1024
Flags: W
LayerCount: 2
Fore
SplineSet
448 -314 m 5,0,1
 448 -314 448 -314 448 314 c 5,2,3
 356 296 356 296 286 226 c 4,4,5
 192 132 192 132 192 0 c 132,-1,6
 192 -132 192 -132 286 -226 c 4,7,8
 356 -296 356 -296 448 -314 c 5,0,1
576 320 m 5,9,-1
 576 -444 l 5,10,11
 545 -448 545 -448 512 -448 c 4,12,13
 327 -448 327 -448 195.5 -316.5 c 132,-1,14
 64 -185 64 -185 64 0 c 132,-1,15
 64 185 64 185 195.5 316.5 c 132,-1,16
 327 448 327 448 512 448 c 13,17,18
 512 448 512 448 960 448 c 5,19,-1
 960 320 l 5,20,-1
 576 320 l 5,9,-1
EndSplineSet
Validated: 1
EndChar

StartChar: Hcircumflex
Encoding: 292 292 72
Width: 1024
Flags: W
LayerCount: 2
Fore
SplineSet
198 -64 m 5,0,1
 216 -156 216 -156 286 -226 c 4,2,3
 380 -320 380 -320 512 -320 c 132,-1,4
 644 -320 644 -320 738 -226 c 4,5,6
 808 -156 808 -156 826 -64 c 5,7,8
 198 -64 198 -64 198 -64 c 5,0,1
832 64 m 1,9,-1
 832 448 l 1,10,-1
 960 448 l 1,11,-1
 960 0 l 17,12,13
 960 -185 960 -185 828.5 -316.5 c 128,-1,14
 697 -448 697 -448 512 -448 c 128,-1,15
 327 -448 327 -448 195.5 -316.5 c 128,-1,16
 64 -185 64 -185 64 0 c 0,17,18
 64 33 64 33 68 64 c 1,19,20
 68 64 68 64 832 64 c 1,9,-1
EndSplineSet
Validated: 1
EndChar

StartChar: hcircumflex
Encoding: 293 293 73
Width: 1024
Flags: W
LayerCount: 2
Fore
SplineSet
576 -314 m 5,0,1
 668 -296 668 -296 738 -226 c 4,2,3
 832 -132 832 -132 832 0 c 132,-1,4
 832 132 832 132 738 226 c 4,5,6
 668 296 668 296 576 314 c 5,7,8
 576 -314 576 -314 576 -314 c 5,0,1
448 320 m 1,9,-1
 64 320 l 1,10,-1
 64 448 l 1,11,-1
 512 448 l 17,12,13
 697 448 697 448 828.5 316.5 c 128,-1,14
 960 185 960 185 960 0 c 128,-1,15
 960 -185 960 -185 828.5 -316.5 c 128,-1,16
 697 -448 697 -448 512 -448 c 0,17,18
 479 -448 479 -448 448 -444 c 1,19,20
 448 -444 448 -444 448 320 c 1,9,-1
EndSplineSet
Validated: 1
EndChar

StartChar: Hbar
Encoding: 294 294 74
Width: 1024
Flags: W
LayerCount: 2
Fore
SplineSet
826 64 m 5,0,1
 808 156 808 156 738 226 c 4,2,3
 644 320 644 320 512 320 c 132,-1,4
 380 320 380 320 286 226 c 4,5,6
 216 156 216 156 198 64 c 5,7,8
 826 64 826 64 826 64 c 5,0,1
192 -64 m 1,9,-1
 192 -448 l 1,10,-1
 64 -448 l 1,11,-1
 64 0 l 17,12,13
 64 185 64 185 195.5 316.5 c 128,-1,14
 327 448 327 448 512 448 c 128,-1,15
 697 448 697 448 828.5 316.5 c 128,-1,16
 960 185 960 185 960 0 c 0,17,18
 960 -33 960 -33 956 -64 c 1,19,20
 956 -64 956 -64 192 -64 c 1,9,-1
EndSplineSet
Validated: 1
EndChar

StartChar: hbar
Encoding: 295 295 75
Width: 1024
Flags: W
LayerCount: 2
Fore
SplineSet
448 314 m 5,0,1
 356 296 356 296 286 226 c 4,2,3
 192 132 192 132 192 0 c 132,-1,4
 192 -132 192 -132 286 -226 c 4,5,6
 356 -296 356 -296 448 -314 c 5,7,8
 448 314 448 314 448 314 c 5,0,1
576 -320 m 1,9,-1
 960 -320 l 1,10,-1
 960 -448 l 1,11,-1
 512 -448 l 17,12,13
 327 -448 327 -448 195.5 -316.5 c 128,-1,14
 64 -185 64 -185 64 0 c 128,-1,15
 64 185 64 185 195.5 316.5 c 128,-1,16
 327 448 327 448 512 448 c 0,17,18
 545 448 545 448 576 444 c 1,19,20
 576 444 576 444 576 -320 c 1,9,-1
EndSplineSet
Validated: 1
EndChar

StartChar: Itilde
Encoding: 296 296 76
Width: 1024
Flags: W
LayerCount: 2
Fore
SplineSet
832 448 m 5,0,-1
 960 448 l 5,1,-1
 960 320 l 5,2,-1
 832 320 l 5,3,-1
 832 448 l 5,0,-1
826 -64 m 5,4,-1
 198 -64 l 5,5,6
 216 -156 216 -156 286 -226 c 4,7,8
 380 -320 380 -320 512 -320 c 132,-1,9
 644 -320 644 -320 738 -226 c 4,10,11
 808 -156 808 -156 826 -64 c 5,4,-1
192 64 m 5,12,-1
 956 64 l 5,13,14
 960 33 960 33 960 0 c 4,15,16
 960 -185 960 -185 828.5 -316.5 c 132,-1,17
 697 -448 697 -448 512 -448 c 132,-1,18
 327 -448 327 -448 195.5 -316.5 c 132,-1,19
 64 -185 64 -185 64 0 c 6,20,-1
 64 448 l 5,21,-1
 192 448 l 5,22,-1
 192 64 l 5,12,-1
EndSplineSet
Validated: 1025
EndChar

StartChar: itilde
Encoding: 297 297 77
Width: 1024
Flags: W
LayerCount: 2
Fore
SplineSet
64 320 m 5,0,-1
 64 448 l 5,1,-1
 192 448 l 5,2,-1
 192 320 l 5,3,-1
 64 320 l 5,0,-1
576 314 m 5,4,-1
 576 -314 l 5,5,6
 668 -296 668 -296 738 -226 c 4,7,8
 832 -132 832 -132 832 0 c 132,-1,9
 832 132 832 132 738 226 c 4,10,11
 668 296 668 296 576 314 c 5,4,-1
448 -320 m 5,12,-1
 448 444 l 5,13,14
 479 448 479 448 512 448 c 4,15,16
 697 448 697 448 828.5 316.5 c 132,-1,17
 960 185 960 185 960 0 c 132,-1,18
 960 -185 960 -185 828.5 -316.5 c 132,-1,19
 697 -448 697 -448 512 -448 c 6,20,-1
 64 -448 l 5,21,-1
 64 -320 l 5,22,-1
 448 -320 l 5,12,-1
EndSplineSet
Validated: 1025
EndChar

StartChar: Imacron
Encoding: 298 298 78
Width: 1024
Flags: W
LayerCount: 2
Fore
SplineSet
192 -448 m 5,0,-1
 64 -448 l 5,1,-1
 64 -320 l 5,2,-1
 192 -320 l 5,3,-1
 192 -448 l 5,0,-1
198 64 m 5,4,-1
 826 64 l 5,5,6
 808 156 808 156 738 226 c 4,7,8
 644 320 644 320 512 320 c 132,-1,9
 380 320 380 320 286 226 c 4,10,11
 216 156 216 156 198 64 c 5,4,-1
832 -64 m 5,12,-1
 68 -64 l 5,13,14
 64 -33 64 -33 64 0 c 4,15,16
 64 185 64 185 195.5 316.5 c 132,-1,17
 327 448 327 448 512 448 c 132,-1,18
 697 448 697 448 828.5 316.5 c 132,-1,19
 960 185 960 185 960 0 c 6,20,-1
 960 -448 l 5,21,-1
 832 -448 l 5,22,-1
 832 -64 l 5,12,-1
EndSplineSet
Validated: 1025
EndChar

StartChar: imacron
Encoding: 299 299 79
Width: 1024
Flags: W
LayerCount: 2
Fore
SplineSet
960 -320 m 5,0,-1
 960 -448 l 5,1,-1
 832 -448 l 5,2,-1
 832 -320 l 5,3,-1
 960 -320 l 5,0,-1
448 -314 m 5,4,-1
 448 314 l 5,5,6
 356 296 356 296 286 226 c 4,7,8
 192 132 192 132 192 0 c 132,-1,9
 192 -132 192 -132 286 -226 c 4,10,11
 356 -296 356 -296 448 -314 c 5,4,-1
576 320 m 5,12,-1
 576 -444 l 5,13,14
 545 -448 545 -448 512 -448 c 4,15,16
 327 -448 327 -448 195.5 -316.5 c 132,-1,17
 64 -185 64 -185 64 0 c 132,-1,18
 64 185 64 185 195.5 316.5 c 132,-1,19
 327 448 327 448 512 448 c 6,20,-1
 960 448 l 5,21,-1
 960 320 l 5,22,-1
 576 320 l 5,12,-1
EndSplineSet
Validated: 1025
EndChar

StartChar: Ibreve
Encoding: 300 300 80
Width: 1024
Flags: W
LayerCount: 2
Fore
SplineSet
192 448 m 5,0,-1
 192 320 l 5,1,-1
 64 320 l 5,2,-1
 64 448 l 5,3,-1
 192 448 l 5,0,-1
198 -64 m 5,4,5
 216 -156 216 -156 286 -226 c 4,6,7
 380 -320 380 -320 512 -320 c 132,-1,8
 644 -320 644 -320 738 -226 c 4,9,10
 808 -156 808 -156 826 -64 c 5,11,12
 826 -64 826 -64 198 -64 c 5,4,5
832 64 m 5,13,-1
 832 448 l 5,14,-1
 960 448 l 5,15,-1
 960 0 l 6,16,17
 960 -185 960 -185 828.5 -316.5 c 132,-1,18
 697 -448 697 -448 512 -448 c 132,-1,19
 327 -448 327 -448 195.5 -316.5 c 132,-1,20
 64 -185 64 -185 64 0 c 4,21,22
 64 33 64 33 68 64 c 5,23,24
 68 64 68 64 832 64 c 5,13,-1
EndSplineSet
Validated: 1025
EndChar

StartChar: ibreve
Encoding: 301 301 81
Width: 1024
Flags: W
LayerCount: 2
Fore
SplineSet
64 -320 m 5,0,-1
 192 -320 l 5,1,-1
 192 -448 l 5,2,-1
 64 -448 l 5,3,-1
 64 -320 l 5,0,-1
576 -314 m 5,4,5
 668 -296 668 -296 738 -226 c 4,6,7
 832 -132 832 -132 832 0 c 132,-1,8
 832 132 832 132 738 226 c 4,9,10
 668 296 668 296 576 314 c 5,11,12
 576 314 576 314 576 -314 c 5,4,5
448 320 m 5,13,-1
 64 320 l 5,14,-1
 64 448 l 5,15,-1
 512 448 l 6,16,17
 697 448 697 448 828.5 316.5 c 132,-1,18
 960 185 960 185 960 0 c 132,-1,19
 960 -185 960 -185 828.5 -316.5 c 132,-1,20
 697 -448 697 -448 512 -448 c 4,21,22
 479 -448 479 -448 448 -444 c 5,23,24
 448 -444 448 -444 448 320 c 5,13,-1
EndSplineSet
Validated: 1025
EndChar

StartChar: Iogonek
Encoding: 302 302 82
Width: 1024
Flags: W
LayerCount: 2
Fore
SplineSet
832 -448 m 5,0,-1
 832 -320 l 5,1,-1
 960 -320 l 5,2,-1
 960 -448 l 5,3,-1
 832 -448 l 5,0,-1
826 64 m 5,4,5
 808 156 808 156 738 226 c 4,6,7
 644 320 644 320 512 320 c 132,-1,8
 380 320 380 320 286 226 c 4,9,10
 216 156 216 156 198 64 c 5,11,12
 198 64 198 64 826 64 c 5,4,5
192 -64 m 5,13,-1
 192 -448 l 5,14,-1
 64 -448 l 5,15,-1
 64 0 l 6,16,17
 64 185 64 185 195.5 316.5 c 132,-1,18
 327 448 327 448 512 448 c 132,-1,19
 697 448 697 448 828.5 316.5 c 132,-1,20
 960 185 960 185 960 0 c 4,21,22
 960 -33 960 -33 956 -64 c 5,23,24
 956 -64 956 -64 192 -64 c 5,13,-1
EndSplineSet
Validated: 1025
EndChar

StartChar: iogonek
Encoding: 303 303 83
Width: 1024
Flags: W
LayerCount: 2
Fore
SplineSet
960 320 m 5,0,-1
 832 320 l 5,1,-1
 832 448 l 5,2,-1
 960 448 l 5,3,-1
 960 320 l 5,0,-1
448 314 m 5,4,5
 356 296 356 296 286 226 c 4,6,7
 192 132 192 132 192 0 c 132,-1,8
 192 -132 192 -132 286 -226 c 4,9,10
 356 -296 356 -296 448 -314 c 5,11,12
 448 -314 448 -314 448 314 c 5,4,5
576 -320 m 5,13,-1
 960 -320 l 5,14,-1
 960 -448 l 5,15,-1
 512 -448 l 6,16,17
 327 -448 327 -448 195.5 -316.5 c 132,-1,18
 64 -185 64 -185 64 0 c 132,-1,19
 64 185 64 185 195.5 316.5 c 132,-1,20
 327 448 327 448 512 448 c 4,21,22
 545 448 545 448 576 444 c 5,23,24
 576 444 576 444 576 -320 c 5,13,-1
EndSplineSet
Validated: 1025
EndChar

StartChar: Idotaccent
Encoding: 304 304 84
Width: 1024
Flags: W
LayerCount: 2
Fore
SplineSet
448 -444 m 5,0,1
 448 -444 448 -444 448 -314 c 5,2,3
 479 -320 479 -320 512 -320 c 4,4,5
 644 -320 644 -320 738 -226 c 4,6,7
 808 -156 808 -156 826 -64 c 5,8,9
 826 -64 826 -64 64 -64 c 5,10,-1
 64 448 l 5,11,-1
 192 448 l 5,12,-1
 192 64 l 5,13,-1
 956 64 l 5,14,15
 960 33 960 33 960 0 c 4,16,17
 960 -185 960 -185 828.5 -316.5 c 132,-1,18
 697 -448 697 -448 512 -448 c 4,19,20
 479 -448 479 -448 448 -444 c 5,0,1
EndSplineSet
Validated: 1
EndChar

StartChar: dotlessi
Encoding: 305 305 85
Width: 1024
Flags: W
LayerCount: 2
Fore
SplineSet
956 -64 m 5,0,1
 956 -64 956 -64 826 -64 c 5,2,3
 832 -33 832 -33 832 0 c 4,4,5
 832 132 832 132 738 226 c 4,6,7
 668 296 668 296 576 314 c 5,8,9
 576 314 576 314 576 -448 c 5,10,-1
 64 -448 l 5,11,-1
 64 -320 l 5,12,-1
 448 -320 l 5,13,-1
 448 444 l 5,14,15
 479 448 479 448 512 448 c 4,16,17
 697 448 697 448 828.5 316.5 c 132,-1,18
 960 185 960 185 960 0 c 4,19,20
 960 -33 960 -33 956 -64 c 5,0,1
EndSplineSet
Validated: 1
EndChar

StartChar: IJ
Encoding: 306 306 86
Width: 1024
Flags: W
LayerCount: 2
Fore
SplineSet
576 444 m 5,0,1
 576 444 576 444 576 314 c 5,2,3
 545 320 545 320 512 320 c 4,4,5
 380 320 380 320 286 226 c 4,6,7
 216 156 216 156 198 64 c 5,8,9
 198 64 198 64 960 64 c 5,10,-1
 960 -448 l 5,11,-1
 832 -448 l 5,12,-1
 832 -64 l 5,13,-1
 68 -64 l 5,14,15
 64 -33 64 -33 64 0 c 4,16,17
 64 185 64 185 195.5 316.5 c 132,-1,18
 327 448 327 448 512 448 c 4,19,20
 545 448 545 448 576 444 c 5,0,1
EndSplineSet
Validated: 1
EndChar

StartChar: ij
Encoding: 307 307 87
Width: 1024
Flags: W
LayerCount: 2
Fore
SplineSet
68 64 m 5,0,1
 68 64 68 64 198 64 c 5,2,3
 192 33 192 33 192 0 c 4,4,5
 192 -132 192 -132 286 -226 c 4,6,7
 356 -296 356 -296 448 -314 c 5,8,9
 448 -314 448 -314 448 448 c 5,10,-1
 960 448 l 5,11,-1
 960 320 l 5,12,-1
 576 320 l 5,13,-1
 576 -444 l 5,14,15
 545 -448 545 -448 512 -448 c 4,16,17
 327 -448 327 -448 195.5 -316.5 c 132,-1,18
 64 -185 64 -185 64 0 c 4,19,20
 64 33 64 33 68 64 c 5,0,1
EndSplineSet
Validated: 1
EndChar

StartChar: Jcircumflex
Encoding: 308 308 88
Width: 1024
Flags: W
LayerCount: 2
Fore
SplineSet
576 -444 m 1,0,1
 545 -448 545 -448 512 -448 c 0,2,3
 327 -448 327 -448 195.5 -316.5 c 128,-1,4
 64 -185 64 -185 64 0 c 0,5,6
 64 33 64 33 68 64 c 1,7,8
 68 64 68 64 832 64 c 1,9,-1
 832 448 l 1,10,-1
 960 448 l 1,11,-1
 960 -64 l 1,12,-1
 198 -64 l 1,13,14
 216 -156 216 -156 286 -226 c 0,15,16
 380 -320 380 -320 512 -320 c 0,17,18
 545 -320 545 -320 576 -314 c 1,19,20
 576 -444 576 -444 576 -444 c 1,0,1
EndSplineSet
Validated: 1
EndChar

StartChar: jcircumflex
Encoding: 309 309 89
Width: 1024
Flags: W
LayerCount: 2
Fore
SplineSet
956 64 m 1,0,1
 960 33 960 33 960 0 c 0,2,3
 960 -185 960 -185 828.5 -316.5 c 128,-1,4
 697 -448 697 -448 512 -448 c 0,5,6
 479 -448 479 -448 448 -444 c 1,7,8
 448 -444 448 -444 448 320 c 1,9,-1
 64 320 l 1,10,-1
 64 448 l 1,11,-1
 576 448 l 1,12,-1
 576 -314 l 1,13,14
 668 -296 668 -296 738 -226 c 0,15,16
 832 -132 832 -132 832 0 c 0,17,18
 832 33 832 33 826 64 c 1,19,20
 956 64 956 64 956 64 c 1,0,1
EndSplineSet
Validated: 1
EndChar

StartChar: uni0136
Encoding: 310 310 90
Width: 1024
Flags: W
LayerCount: 2
Fore
SplineSet
448 444 m 1,0,1
 479 448 479 448 512 448 c 0,2,3
 697 448 697 448 828.5 316.5 c 128,-1,4
 960 185 960 185 960 0 c 0,5,6
 960 -33 960 -33 956 -64 c 1,7,8
 956 -64 956 -64 192 -64 c 1,9,-1
 192 -448 l 1,10,-1
 64 -448 l 1,11,-1
 64 64 l 1,12,-1
 826 64 l 1,13,14
 808 156 808 156 738 226 c 0,15,16
 644 320 644 320 512 320 c 0,17,18
 479 320 479 320 448 314 c 1,19,20
 448 444 448 444 448 444 c 1,0,1
EndSplineSet
Validated: 1
EndChar

StartChar: uni0137
Encoding: 311 311 91
Width: 1024
Flags: W
LayerCount: 2
Fore
SplineSet
68 -64 m 1,0,1
 64 -33 64 -33 64 0 c 0,2,3
 64 185 64 185 195.5 316.5 c 128,-1,4
 327 448 327 448 512 448 c 0,5,6
 545 448 545 448 576 444 c 1,7,8
 576 444 576 444 576 -320 c 1,9,-1
 960 -320 l 1,10,-1
 960 -448 l 1,11,-1
 448 -448 l 1,12,-1
 448 314 l 1,13,14
 356 296 356 296 286 226 c 0,15,16
 192 132 192 132 192 0 c 0,17,18
 192 -33 192 -33 198 -64 c 1,19,20
 68 -64 68 -64 68 -64 c 1,0,1
EndSplineSet
Validated: 1
EndChar

StartChar: kgreenlandic
Encoding: 312 312 92
Width: 1024
Flags: W
LayerCount: 2
Fore
SplineSet
448 -444 m 5,0,-1
 448 -314 l 5,1,2
 479 -320 479 -320 512 -320 c 4,3,4
 644 -320 644 -320 738 -226 c 4,5,6
 808 -156 808 -156 826 -64 c 5,7,-1
 64 -64 l 5,8,-1
 64 448 l 5,9,-1
 192 448 l 5,10,-1
 192 64 l 5,11,-1
 956 64 l 5,12,13
 960 33 960 33 960 0 c 4,14,15
 960 -185 960 -185 828.5 -316.5 c 132,-1,16
 697 -448 697 -448 512 -448 c 4,17,18
 479 -448 479 -448 448 -444 c 5,0,-1
832 448 m 5,19,-1
 960 448 l 5,20,-1
 960 320 l 5,21,-1
 832 320 l 5,22,-1
 832 448 l 5,19,-1
EndSplineSet
Validated: 1025
EndChar

StartChar: Lacute
Encoding: 313 313 93
Width: 1024
Flags: W
LayerCount: 2
Fore
SplineSet
956 -64 m 5,0,-1
 826 -64 l 5,1,2
 832 -33 832 -33 832 0 c 4,3,4
 832 132 832 132 738 226 c 4,5,6
 668 296 668 296 576 314 c 5,7,-1
 576 -448 l 5,8,-1
 64 -448 l 5,9,-1
 64 -320 l 5,10,-1
 448 -320 l 5,11,-1
 448 444 l 5,12,13
 479 448 479 448 512 448 c 4,14,15
 697 448 697 448 828.5 316.5 c 132,-1,16
 960 185 960 185 960 0 c 4,17,18
 960 -33 960 -33 956 -64 c 5,0,-1
64 320 m 5,19,-1
 64 448 l 5,20,-1
 192 448 l 5,21,-1
 192 320 l 5,22,-1
 64 320 l 5,19,-1
EndSplineSet
Validated: 1025
EndChar

StartChar: lacute
Encoding: 314 314 94
Width: 1024
Flags: W
LayerCount: 2
Fore
SplineSet
576 444 m 5,0,-1
 576 314 l 5,1,2
 545 320 545 320 512 320 c 4,3,4
 380 320 380 320 286 226 c 4,5,6
 216 156 216 156 198 64 c 5,7,-1
 960 64 l 5,8,-1
 960 -448 l 5,9,-1
 832 -448 l 5,10,-1
 832 -64 l 5,11,-1
 68 -64 l 5,12,13
 64 -33 64 -33 64 0 c 4,14,15
 64 185 64 185 195.5 316.5 c 132,-1,16
 327 448 327 448 512 448 c 4,17,18
 545 448 545 448 576 444 c 5,0,-1
192 -448 m 5,19,-1
 64 -448 l 5,20,-1
 64 -320 l 5,21,-1
 192 -320 l 5,22,-1
 192 -448 l 5,19,-1
EndSplineSet
Validated: 1025
EndChar

StartChar: uni013B
Encoding: 315 315 95
Width: 1024
Flags: W
LayerCount: 2
Fore
SplineSet
68 64 m 5,0,-1
 198 64 l 5,1,2
 192 33 192 33 192 0 c 4,3,4
 192 -132 192 -132 286 -226 c 4,5,6
 356 -296 356 -296 448 -314 c 5,7,-1
 448 448 l 5,8,-1
 960 448 l 5,9,-1
 960 320 l 5,10,-1
 576 320 l 5,11,-1
 576 -444 l 5,12,13
 545 -448 545 -448 512 -448 c 4,14,15
 327 -448 327 -448 195.5 -316.5 c 132,-1,16
 64 -185 64 -185 64 0 c 4,17,18
 64 33 64 33 68 64 c 5,0,-1
960 -320 m 5,19,-1
 960 -448 l 5,20,-1
 832 -448 l 5,21,-1
 832 -320 l 5,22,-1
 960 -320 l 5,19,-1
EndSplineSet
Validated: 1025
EndChar

StartChar: uni013C
Encoding: 316 316 96
Width: 1024
Flags: W
LayerCount: 2
Fore
SplineSet
576 -444 m 1,0,1
 545 -448 545 -448 512 -448 c 0,2,3
 327 -448 327 -448 195.5 -316.5 c 128,-1,4
 64 -185 64 -185 64 0 c 0,5,6
 64 33 64 33 68 64 c 1,7,8
 68 64 68 64 832 64 c 1,9,-1
 832 448 l 1,10,-1
 960 448 l 1,11,-1
 960 -64 l 1,12,-1
 198 -64 l 1,13,14
 216 -156 216 -156 286 -226 c 0,15,16
 380 -320 380 -320 512 -320 c 0,17,18
 545 -320 545 -320 576 -314 c 1,19,20
 576 -314 576 -314 576 -444 c 1,0,1
192 448 m 1,21,-1
 192 320 l 1,22,-1
 64 320 l 1,23,-1
 64 448 l 1,24,-1
 192 448 l 1,21,-1
EndSplineSet
Validated: 1025
EndChar

StartChar: Lcaron
Encoding: 317 317 97
Width: 1024
Flags: W
LayerCount: 2
Fore
SplineSet
956 64 m 1,0,1
 960 33 960 33 960 0 c 0,2,3
 960 -185 960 -185 828.5 -316.5 c 128,-1,4
 697 -448 697 -448 512 -448 c 0,5,6
 479 -448 479 -448 448 -444 c 1,7,8
 448 -444 448 -444 448 320 c 1,9,-1
 64 320 l 1,10,-1
 64 448 l 1,11,-1
 576 448 l 1,12,-1
 576 -314 l 1,13,14
 668 -296 668 -296 738 -226 c 0,15,16
 832 -132 832 -132 832 0 c 0,17,18
 832 33 832 33 826 64 c 1,19,20
 826 64 826 64 956 64 c 1,0,1
64 -320 m 1,21,-1
 192 -320 l 1,22,-1
 192 -448 l 1,23,-1
 64 -448 l 1,24,-1
 64 -320 l 1,21,-1
EndSplineSet
Validated: 1025
EndChar

StartChar: lcaron
Encoding: 318 318 98
Width: 1024
Flags: W
LayerCount: 2
Fore
SplineSet
448 444 m 1,0,1
 479 448 479 448 512 448 c 0,2,3
 697 448 697 448 828.5 316.5 c 128,-1,4
 960 185 960 185 960 0 c 0,5,6
 960 -33 960 -33 956 -64 c 1,7,8
 956 -64 956 -64 192 -64 c 1,9,-1
 192 -448 l 1,10,-1
 64 -448 l 1,11,-1
 64 64 l 1,12,-1
 826 64 l 1,13,14
 808 156 808 156 738 226 c 0,15,16
 644 320 644 320 512 320 c 0,17,18
 479 320 479 320 448 314 c 1,19,20
 448 314 448 314 448 444 c 1,0,1
832 -448 m 1,21,-1
 832 -320 l 1,22,-1
 960 -320 l 1,23,-1
 960 -448 l 1,24,-1
 832 -448 l 1,21,-1
EndSplineSet
Validated: 1025
EndChar

StartChar: Ldot
Encoding: 319 319 99
Width: 1024
Flags: W
LayerCount: 2
Fore
SplineSet
68 -64 m 1,0,1
 64 -33 64 -33 64 0 c 0,2,3
 64 185 64 185 195.5 316.5 c 128,-1,4
 327 448 327 448 512 448 c 0,5,6
 545 448 545 448 576 444 c 1,7,8
 576 444 576 444 576 -320 c 1,9,-1
 960 -320 l 1,10,-1
 960 -448 l 1,11,-1
 448 -448 l 1,12,-1
 448 314 l 1,13,14
 356 296 356 296 286 226 c 0,15,16
 192 132 192 132 192 0 c 0,17,18
 192 -33 192 -33 198 -64 c 1,19,20
 198 -64 198 -64 68 -64 c 1,0,1
960 320 m 1,21,-1
 832 320 l 1,22,-1
 832 448 l 1,23,-1
 960 448 l 1,24,-1
 960 320 l 1,21,-1
EndSplineSet
Validated: 1025
EndChar

StartChar: at
Encoding: 64 64 100
Width: 1024
Flags: W
LayerCount: 2
Fore
SplineSet
832 0 m 1,0,1
 832 0 832 0 960 0 c 1,2,3
 960 -185 960 -185 828.5 -316.5 c 128,-1,4
 697 -448 697 -448 512 -448 c 128,-1,5
 327 -448 327 -448 195.5 -316.5 c 128,-1,6
 64 -185 64 -185 64 0 c 2,7,8
 64 0 64 0 64 448 c 1,9,-1
 192 448 l 1,10,-1
 192 0 l 2,11,12
 192 -133 192 -133 285.5 -226.5 c 128,-1,13
 379 -320 379 -320 512 -320 c 128,-1,14
 645 -320 645 -320 738.5 -226.5 c 128,-1,15
 832 -133 832 -133 832 0 c 1,0,1
EndSplineSet
Validated: 1
EndChar

StartChar: A
Encoding: 65 65 101
Width: 1024
Flags: W
LayerCount: 2
Fore
SplineSet
512 320 m 1,0,1
 512 320 512 320 512 448 c 1,2,3
 697 448 697 448 828.5 316.5 c 128,-1,4
 960 185 960 185 960 0 c 128,-1,5
 960 -185 960 -185 828.5 -316.5 c 128,-1,6
 697 -448 697 -448 512 -448 c 2,7,8
 512 -448 512 -448 64 -448 c 1,9,-1
 64 -320 l 1,10,-1
 512 -320 l 2,11,12
 645 -320 645 -320 738.5 -226.5 c 128,-1,13
 832 -133 832 -133 832 0 c 128,-1,14
 832 133 832 133 738.5 226.5 c 128,-1,15
 645 320 645 320 512 320 c 1,0,1
EndSplineSet
Validated: 1
EndChar

StartChar: B
Encoding: 66 66 102
Width: 1024
Flags: W
LayerCount: 2
Fore
SplineSet
192 0 m 1,0,1
 192 0 192 0 64 0 c 1,2,3
 64 185 64 185 195.5 316.5 c 128,-1,4
 327 448 327 448 512 448 c 128,-1,5
 697 448 697 448 828.5 316.5 c 128,-1,6
 960 185 960 185 960 0 c 2,7,8
 960 0 960 0 960 -448 c 1,9,-1
 832 -448 l 1,10,-1
 832 0 l 2,11,12
 832 133 832 133 738.5 226.5 c 128,-1,13
 645 320 645 320 512 320 c 128,-1,14
 379 320 379 320 285.5 226.5 c 128,-1,15
 192 133 192 133 192 0 c 1,0,1
EndSplineSet
Validated: 1
EndChar

StartChar: C
Encoding: 67 67 103
Width: 1024
Flags: W
LayerCount: 2
Fore
SplineSet
512 -320 m 1,0,1
 512 -320 512 -320 512 -448 c 1,2,3
 327 -448 327 -448 195.5 -316.5 c 128,-1,4
 64 -185 64 -185 64 0 c 128,-1,5
 64 185 64 185 195.5 316.5 c 128,-1,6
 327 448 327 448 512 448 c 2,7,8
 512 448 512 448 960 448 c 1,9,-1
 960 320 l 1,10,-1
 512 320 l 2,11,12
 379 320 379 320 285.5 226.5 c 128,-1,13
 192 133 192 133 192 0 c 128,-1,14
 192 -133 192 -133 285.5 -226.5 c 128,-1,15
 379 -320 379 -320 512 -320 c 1,0,1
EndSplineSet
Validated: 1
EndChar

StartChar: D
Encoding: 68 68 104
Width: 1024
Flags: W
LayerCount: 2
Fore
SplineSet
192 0 m 1,0,1
 192 -133 192 -133 285.5 -226.5 c 128,-1,2
 379 -320 379 -320 512 -320 c 128,-1,3
 645 -320 645 -320 738.5 -226.5 c 128,-1,4
 832 -133 832 -133 832 0 c 2,5,6
 832 0 832 0 832 448 c 1,7,-1
 960 448 l 1,8,-1
 960 0 l 2,9,10
 960 -185 960 -185 828.5 -316.5 c 128,-1,11
 697 -448 697 -448 512 -448 c 128,-1,12
 327 -448 327 -448 195.5 -316.5 c 128,-1,13
 64 -185 64 -185 64 0 c 1,14,15
 192 0 192 0 192 0 c 1,0,1
EndSplineSet
Validated: 1
EndChar

StartChar: E
Encoding: 69 69 105
Width: 1024
Flags: W
LayerCount: 2
Fore
SplineSet
512 -320 m 1,0,1
 645 -320 645 -320 738.5 -226.5 c 128,-1,2
 832 -133 832 -133 832 0 c 128,-1,3
 832 133 832 133 738.5 226.5 c 128,-1,4
 645 320 645 320 512 320 c 2,5,6
 512 320 512 320 64 320 c 1,7,-1
 64 448 l 1,8,-1
 512 448 l 2,9,10
 697 448 697 448 828.5 316.5 c 128,-1,11
 960 185 960 185 960 0 c 128,-1,12
 960 -185 960 -185 828.5 -316.5 c 128,-1,13
 697 -448 697 -448 512 -448 c 1,14,15
 512 -320 512 -320 512 -320 c 1,0,1
EndSplineSet
Validated: 1
EndChar

StartChar: F
Encoding: 70 70 106
Width: 1024
Flags: W
LayerCount: 2
Fore
SplineSet
832 0 m 1,0,1
 832 133 832 133 738.5 226.5 c 128,-1,2
 645 320 645 320 512 320 c 128,-1,3
 379 320 379 320 285.5 226.5 c 128,-1,4
 192 133 192 133 192 0 c 2,5,6
 192 0 192 0 192 -448 c 1,7,-1
 64 -448 l 1,8,-1
 64 0 l 2,9,10
 64 185 64 185 195.5 316.5 c 128,-1,11
 327 448 327 448 512 448 c 128,-1,12
 697 448 697 448 828.5 316.5 c 128,-1,13
 960 185 960 185 960 0 c 1,14,15
 832 0 832 0 832 0 c 1,0,1
EndSplineSet
Validated: 1
EndChar

StartChar: G
Encoding: 71 71 107
Width: 1024
Flags: W
LayerCount: 2
Fore
SplineSet
512 320 m 1,0,1
 379 320 379 320 285.5 226.5 c 128,-1,2
 192 133 192 133 192 0 c 128,-1,3
 192 -133 192 -133 285.5 -226.5 c 128,-1,4
 379 -320 379 -320 512 -320 c 2,5,6
 512 -320 512 -320 960 -320 c 1,7,-1
 960 -448 l 1,8,-1
 512 -448 l 2,9,10
 327 -448 327 -448 195.5 -316.5 c 128,-1,11
 64 -185 64 -185 64 0 c 128,-1,12
 64 185 64 185 195.5 316.5 c 128,-1,13
 327 448 327 448 512 448 c 1,14,15
 512 320 512 320 512 320 c 1,0,1
EndSplineSet
Validated: 1
EndChar

StartChar: H
Encoding: 72 72 108
Width: 1024
Flags: W
LayerCount: 2
Fore
SplineSet
832 0 m 1,0,-1
 960 0 l 1,1,2
 960 -185 960 -185 828.5 -316.5 c 128,-1,3
 697 -448 697 -448 512 -448 c 128,-1,4
 327 -448 327 -448 195.5 -316.5 c 128,-1,5
 64 -185 64 -185 64 0 c 2,6,-1
 64 448 l 1,7,-1
 192 448 l 1,8,-1
 192 0 l 2,9,10
 192 -133 192 -133 285.5 -226.5 c 128,-1,11
 379 -320 379 -320 512 -320 c 128,-1,12
 645 -320 645 -320 738.5 -226.5 c 128,-1,13
 832 -133 832 -133 832 0 c 1,0,-1
832 448 m 1,14,-1
 960 448 l 1,15,-1
 960 320 l 1,16,-1
 832 320 l 1,17,-1
 832 448 l 1,14,-1
EndSplineSet
Validated: 1
EndChar

StartChar: I
Encoding: 73 73 109
Width: 1024
Flags: W
LayerCount: 2
Fore
SplineSet
512 320 m 1,0,-1
 512 448 l 1,1,2
 697 448 697 448 828.5 316.5 c 128,-1,3
 960 185 960 185 960 0 c 128,-1,4
 960 -185 960 -185 828.5 -316.5 c 128,-1,5
 697 -448 697 -448 512 -448 c 2,6,-1
 64 -448 l 1,7,-1
 64 -320 l 1,8,-1
 512 -320 l 2,9,10
 645 -320 645 -320 738.5 -226.5 c 128,-1,11
 832 -133 832 -133 832 0 c 128,-1,12
 832 133 832 133 738.5 226.5 c 128,-1,13
 645 320 645 320 512 320 c 1,0,-1
64 320 m 1,14,-1
 64 448 l 1,15,-1
 192 448 l 1,16,-1
 192 320 l 1,17,-1
 64 320 l 1,14,-1
EndSplineSet
Validated: 1
EndChar

StartChar: J
Encoding: 74 74 110
Width: 1024
Flags: W
LayerCount: 2
Fore
SplineSet
192 0 m 1,0,-1
 64 0 l 1,1,2
 64 185 64 185 195.5 316.5 c 128,-1,3
 327 448 327 448 512 448 c 128,-1,4
 697 448 697 448 828.5 316.5 c 128,-1,5
 960 185 960 185 960 0 c 2,6,-1
 960 -448 l 1,7,-1
 832 -448 l 1,8,-1
 832 0 l 2,9,10
 832 133 832 133 738.5 226.5 c 128,-1,11
 645 320 645 320 512 320 c 128,-1,12
 379 320 379 320 285.5 226.5 c 128,-1,13
 192 133 192 133 192 0 c 1,0,-1
192 -448 m 1,14,-1
 64 -448 l 1,15,-1
 64 -320 l 1,16,-1
 192 -320 l 1,17,-1
 192 -448 l 1,14,-1
EndSplineSet
Validated: 1
EndChar

StartChar: K
Encoding: 75 75 111
Width: 1024
Flags: W
LayerCount: 2
Fore
SplineSet
512 -320 m 1,0,-1
 512 -448 l 1,1,2
 327 -448 327 -448 195.5 -316.5 c 128,-1,3
 64 -185 64 -185 64 0 c 128,-1,4
 64 185 64 185 195.5 316.5 c 128,-1,5
 327 448 327 448 512 448 c 2,6,-1
 960 448 l 1,7,-1
 960 320 l 1,8,-1
 512 320 l 2,9,10
 379 320 379 320 285.5 226.5 c 128,-1,11
 192 133 192 133 192 0 c 128,-1,12
 192 -133 192 -133 285.5 -226.5 c 128,-1,13
 379 -320 379 -320 512 -320 c 1,0,-1
960 -320 m 1,14,-1
 960 -448 l 1,15,-1
 832 -448 l 1,16,-1
 832 -320 l 1,17,-1
 960 -320 l 1,14,-1
EndSplineSet
Validated: 1
EndChar

StartChar: L
Encoding: 76 76 112
Width: 1024
Flags: W
LayerCount: 2
Fore
SplineSet
192 0 m 1,0,1
 192 -133 192 -133 285.5 -226.5 c 128,-1,2
 379 -320 379 -320 512 -320 c 128,-1,3
 645 -320 645 -320 738.5 -226.5 c 128,-1,4
 832 -133 832 -133 832 0 c 2,5,6
 832 0 832 0 832 448 c 1,7,-1
 960 448 l 1,8,-1
 960 0 l 2,9,10
 960 -185 960 -185 828.5 -316.5 c 128,-1,11
 697 -448 697 -448 512 -448 c 128,-1,12
 327 -448 327 -448 195.5 -316.5 c 128,-1,13
 64 -185 64 -185 64 0 c 1,14,15
 64 0 64 0 192 0 c 1,0,1
192 448 m 1,16,-1
 192 320 l 1,17,-1
 64 320 l 1,18,-1
 64 448 l 1,19,-1
 192 448 l 1,16,-1
EndSplineSet
Validated: 1
EndChar

StartChar: M
Encoding: 77 77 113
Width: 1024
Flags: W
LayerCount: 2
Fore
SplineSet
512 -320 m 1,0,1
 645 -320 645 -320 738.5 -226.5 c 128,-1,2
 832 -133 832 -133 832 0 c 128,-1,3
 832 133 832 133 738.5 226.5 c 128,-1,4
 645 320 645 320 512 320 c 2,5,6
 512 320 512 320 64 320 c 1,7,-1
 64 448 l 1,8,-1
 512 448 l 2,9,10
 697 448 697 448 828.5 316.5 c 128,-1,11
 960 185 960 185 960 0 c 128,-1,12
 960 -185 960 -185 828.5 -316.5 c 128,-1,13
 697 -448 697 -448 512 -448 c 1,14,15
 512 -448 512 -448 512 -320 c 1,0,1
64 -320 m 1,16,-1
 192 -320 l 1,17,-1
 192 -448 l 1,18,-1
 64 -448 l 1,19,-1
 64 -320 l 1,16,-1
EndSplineSet
Validated: 1
EndChar

StartChar: N
Encoding: 78 78 114
Width: 1024
Flags: W
LayerCount: 2
Fore
SplineSet
832 0 m 1,0,1
 832 133 832 133 738.5 226.5 c 128,-1,2
 645 320 645 320 512 320 c 128,-1,3
 379 320 379 320 285.5 226.5 c 128,-1,4
 192 133 192 133 192 0 c 2,5,6
 192 0 192 0 192 -448 c 1,7,-1
 64 -448 l 1,8,-1
 64 0 l 2,9,10
 64 185 64 185 195.5 316.5 c 128,-1,11
 327 448 327 448 512 448 c 128,-1,12
 697 448 697 448 828.5 316.5 c 128,-1,13
 960 185 960 185 960 0 c 1,14,15
 960 0 960 0 832 0 c 1,0,1
832 -448 m 1,16,-1
 832 -320 l 1,17,-1
 960 -320 l 1,18,-1
 960 -448 l 1,19,-1
 832 -448 l 1,16,-1
EndSplineSet
Validated: 1
EndChar

StartChar: O
Encoding: 79 79 115
Width: 1024
Flags: W
LayerCount: 2
Fore
SplineSet
512 320 m 1,0,1
 379 320 379 320 285.5 226.5 c 128,-1,2
 192 133 192 133 192 0 c 128,-1,3
 192 -133 192 -133 285.5 -226.5 c 128,-1,4
 379 -320 379 -320 512 -320 c 2,5,6
 512 -320 512 -320 960 -320 c 1,7,-1
 960 -448 l 1,8,-1
 512 -448 l 2,9,10
 327 -448 327 -448 195.5 -316.5 c 128,-1,11
 64 -185 64 -185 64 0 c 128,-1,12
 64 185 64 185 195.5 316.5 c 128,-1,13
 327 448 327 448 512 448 c 1,14,15
 512 448 512 448 512 320 c 1,0,1
960 320 m 1,16,-1
 832 320 l 1,17,-1
 832 448 l 1,18,-1
 960 448 l 1,19,-1
 960 320 l 1,16,-1
EndSplineSet
Validated: 1
EndChar

StartChar: P
Encoding: 80 80 116
Width: 1024
Flags: W
LayerCount: 2
Fore
SplineSet
576 448 m 5,0,-1
 576 320 l 5,1,-1
 192 320 l 5,2,-1
 192 0 l 6,3,4
 192 -133 192 -133 285.5 -226.5 c 132,-1,5
 379 -320 379 -320 512 -320 c 132,-1,6
 645 -320 645 -320 738.5 -226.5 c 132,-1,7
 832 -133 832 -133 832 0 c 5,8,-1
 960 0 l 5,9,10
 960 -185 960 -185 828.5 -316.5 c 132,-1,11
 697 -448 697 -448 512 -448 c 132,-1,12
 327 -448 327 -448 195.5 -316.5 c 132,-1,13
 64 -185 64 -185 64 0 c 6,14,-1
 64 448 l 5,15,-1
 576 448 l 5,0,-1
EndSplineSet
Validated: 1
EndChar

StartChar: Q
Encoding: 81 81 117
Width: 1024
Flags: W
LayerCount: 2
Fore
SplineSet
64 64 m 5,0,-1
 192 64 l 5,1,-1
 192 -320 l 5,2,-1
 512 -320 l 6,3,4
 645 -320 645 -320 738.5 -226.5 c 132,-1,5
 832 -133 832 -133 832 0 c 132,-1,6
 832 133 832 133 738.5 226.5 c 132,-1,7
 645 320 645 320 512 320 c 5,8,-1
 512 448 l 5,9,10
 697 448 697 448 828.5 316.5 c 132,-1,11
 960 185 960 185 960 0 c 132,-1,12
 960 -185 960 -185 828.5 -316.5 c 132,-1,13
 697 -448 697 -448 512 -448 c 6,14,-1
 64 -448 l 5,15,-1
 64 64 l 5,0,-1
EndSplineSet
Validated: 1
EndChar

StartChar: R
Encoding: 82 82 118
Width: 1024
Flags: W
LayerCount: 2
Fore
SplineSet
448 -448 m 5,0,-1
 448 -320 l 5,1,-1
 832 -320 l 5,2,-1
 832 0 l 6,3,4
 832 133 832 133 738.5 226.5 c 132,-1,5
 645 320 645 320 512 320 c 132,-1,6
 379 320 379 320 285.5 226.5 c 132,-1,7
 192 133 192 133 192 0 c 5,8,-1
 64 0 l 5,9,10
 64 185 64 185 195.5 316.5 c 132,-1,11
 327 448 327 448 512 448 c 132,-1,12
 697 448 697 448 828.5 316.5 c 132,-1,13
 960 185 960 185 960 0 c 6,14,-1
 960 -448 l 5,15,-1
 448 -448 l 5,0,-1
EndSplineSet
Validated: 1
EndChar

StartChar: S
Encoding: 83 83 119
Width: 1024
Flags: W
LayerCount: 2
Fore
SplineSet
960 -64 m 5,0,-1
 832 -64 l 5,1,-1
 832 320 l 5,2,-1
 512 320 l 6,3,4
 379 320 379 320 285.5 226.5 c 132,-1,5
 192 133 192 133 192 0 c 132,-1,6
 192 -133 192 -133 285.5 -226.5 c 132,-1,7
 379 -320 379 -320 512 -320 c 5,8,-1
 512 -448 l 5,9,10
 327 -448 327 -448 195.5 -316.5 c 132,-1,11
 64 -185 64 -185 64 0 c 132,-1,12
 64 185 64 185 195.5 316.5 c 132,-1,13
 327 448 327 448 512 448 c 6,14,-1
 960 448 l 5,15,-1
 960 -64 l 5,0,-1
EndSplineSet
Validated: 1
EndChar

StartChar: T
Encoding: 84 84 120
Width: 1024
Flags: W
LayerCount: 2
Fore
SplineSet
448 448 m 1,0,-1
 960 448 l 1,1,-1
 960 0 l 2,2,3
 960 -185 960 -185 828.5 -316.5 c 128,-1,4
 697 -448 697 -448 512 -448 c 128,-1,5
 327 -448 327 -448 195.5 -316.5 c 128,-1,6
 64 -185 64 -185 64 0 c 1,7,8
 64 0 64 0 192 0 c 1,9,10
 192 -133 192 -133 285.5 -226.5 c 128,-1,11
 379 -320 379 -320 512 -320 c 128,-1,12
 645 -320 645 -320 738.5 -226.5 c 128,-1,13
 832 -133 832 -133 832 0 c 2,14,15
 832 0 832 0 832 320 c 1,16,-1
 448 320 l 1,17,-1
 448 448 l 1,0,-1
EndSplineSet
Validated: 1
EndChar

StartChar: U
Encoding: 85 85 121
Width: 1024
Flags: W
LayerCount: 2
Fore
SplineSet
64 -64 m 1,0,-1
 64 448 l 1,1,-1
 512 448 l 2,2,3
 697 448 697 448 828.5 316.5 c 128,-1,4
 960 185 960 185 960 0 c 128,-1,5
 960 -185 960 -185 828.5 -316.5 c 128,-1,6
 697 -448 697 -448 512 -448 c 1,7,8
 512 -448 512 -448 512 -320 c 1,9,10
 645 -320 645 -320 738.5 -226.5 c 128,-1,11
 832 -133 832 -133 832 0 c 128,-1,12
 832 133 832 133 738.5 226.5 c 128,-1,13
 645 320 645 320 512 320 c 2,14,15
 512 320 512 320 192 320 c 1,16,-1
 192 -64 l 1,17,-1
 64 -64 l 1,0,-1
EndSplineSet
Validated: 1
EndChar

StartChar: V
Encoding: 86 86 122
Width: 1024
Flags: W
LayerCount: 2
Fore
SplineSet
576 -448 m 1,0,-1
 64 -448 l 1,1,-1
 64 0 l 2,2,3
 64 185 64 185 195.5 316.5 c 128,-1,4
 327 448 327 448 512 448 c 128,-1,5
 697 448 697 448 828.5 316.5 c 128,-1,6
 960 185 960 185 960 0 c 1,7,8
 960 0 960 0 832 0 c 1,9,10
 832 133 832 133 738.5 226.5 c 128,-1,11
 645 320 645 320 512 320 c 128,-1,12
 379 320 379 320 285.5 226.5 c 128,-1,13
 192 133 192 133 192 0 c 2,14,15
 192 0 192 0 192 -320 c 1,16,-1
 576 -320 l 1,17,-1
 576 -448 l 1,0,-1
EndSplineSet
Validated: 1
EndChar

StartChar: W
Encoding: 87 87 123
Width: 1024
Flags: W
LayerCount: 2
Fore
SplineSet
960 64 m 1,0,-1
 960 -448 l 1,1,-1
 512 -448 l 2,2,3
 327 -448 327 -448 195.5 -316.5 c 128,-1,4
 64 -185 64 -185 64 0 c 128,-1,5
 64 185 64 185 195.5 316.5 c 128,-1,6
 327 448 327 448 512 448 c 1,7,8
 512 448 512 448 512 320 c 1,9,10
 379 320 379 320 285.5 226.5 c 128,-1,11
 192 133 192 133 192 0 c 128,-1,12
 192 -133 192 -133 285.5 -226.5 c 128,-1,13
 379 -320 379 -320 512 -320 c 2,14,15
 512 -320 512 -320 832 -320 c 1,16,-1
 832 64 l 1,17,-1
 960 64 l 1,0,-1
EndSplineSet
Validated: 1
EndChar

StartChar: X
Encoding: 88 88 124
Width: 1024
Flags: W
LayerCount: 2
Fore
SplineSet
576 448 m 1,0,-1
 576 320 l 1,1,-1
 192 320 l 1,2,-1
 192 0 l 2,3,4
 192 -133 192 -133 285.5 -226.5 c 128,-1,5
 379 -320 379 -320 512 -320 c 128,-1,6
 645 -320 645 -320 738.5 -226.5 c 128,-1,7
 832 -133 832 -133 832 0 c 1,8,-1
 960 0 l 1,9,10
 960 -185 960 -185 828.5 -316.5 c 128,-1,11
 697 -448 697 -448 512 -448 c 128,-1,12
 327 -448 327 -448 195.5 -316.5 c 128,-1,13
 64 -185 64 -185 64 0 c 2,14,-1
 64 448 l 1,15,-1
 576 448 l 1,0,-1
832 448 m 1,16,-1
 960 448 l 1,17,-1
 960 320 l 1,18,-1
 832 320 l 1,19,-1
 832 448 l 1,16,-1
EndSplineSet
Validated: 1025
EndChar

StartChar: Y
Encoding: 89 89 125
Width: 1024
Flags: W
LayerCount: 2
Fore
SplineSet
64 64 m 1,0,-1
 192 64 l 1,1,-1
 192 -320 l 1,2,-1
 512 -320 l 2,3,4
 645 -320 645 -320 738.5 -226.5 c 128,-1,5
 832 -133 832 -133 832 0 c 128,-1,6
 832 133 832 133 738.5 226.5 c 128,-1,7
 645 320 645 320 512 320 c 1,8,-1
 512 448 l 1,9,10
 697 448 697 448 828.5 316.5 c 128,-1,11
 960 185 960 185 960 0 c 128,-1,12
 960 -185 960 -185 828.5 -316.5 c 128,-1,13
 697 -448 697 -448 512 -448 c 2,14,-1
 64 -448 l 1,15,-1
 64 64 l 1,0,-1
64 320 m 1,16,-1
 64 448 l 1,17,-1
 192 448 l 1,18,-1
 192 320 l 1,19,-1
 64 320 l 1,16,-1
EndSplineSet
Validated: 1025
EndChar

StartChar: Z
Encoding: 90 90 126
Width: 1024
Flags: W
LayerCount: 2
Fore
SplineSet
448 -448 m 1,0,-1
 448 -320 l 1,1,-1
 832 -320 l 1,2,-1
 832 0 l 2,3,4
 832 133 832 133 738.5 226.5 c 128,-1,5
 645 320 645 320 512 320 c 128,-1,6
 379 320 379 320 285.5 226.5 c 128,-1,7
 192 133 192 133 192 0 c 1,8,-1
 64 0 l 1,9,10
 64 185 64 185 195.5 316.5 c 128,-1,11
 327 448 327 448 512 448 c 128,-1,12
 697 448 697 448 828.5 316.5 c 128,-1,13
 960 185 960 185 960 0 c 2,14,-1
 960 -448 l 1,15,-1
 448 -448 l 1,0,-1
192 -448 m 1,16,-1
 64 -448 l 1,17,-1
 64 -320 l 1,18,-1
 192 -320 l 1,19,-1
 192 -448 l 1,16,-1
EndSplineSet
Validated: 1025
EndChar

StartChar: bracketleft
Encoding: 91 91 127
Width: 1024
Flags: W
LayerCount: 2
Fore
SplineSet
960 -64 m 1,0,-1
 832 -64 l 1,1,-1
 832 320 l 1,2,-1
 512 320 l 2,3,4
 379 320 379 320 285.5 226.5 c 128,-1,5
 192 133 192 133 192 0 c 128,-1,6
 192 -133 192 -133 285.5 -226.5 c 128,-1,7
 379 -320 379 -320 512 -320 c 1,8,-1
 512 -448 l 1,9,10
 327 -448 327 -448 195.5 -316.5 c 128,-1,11
 64 -185 64 -185 64 0 c 128,-1,12
 64 185 64 185 195.5 316.5 c 128,-1,13
 327 448 327 448 512 448 c 2,14,-1
 960 448 l 1,15,-1
 960 -64 l 1,0,-1
960 -320 m 1,16,-1
 960 -448 l 1,17,-1
 832 -448 l 1,18,-1
 832 -320 l 1,19,-1
 960 -320 l 1,16,-1
EndSplineSet
Validated: 1025
EndChar

StartChar: backslash
Encoding: 92 92 128
Width: 1024
Flags: W
LayerCount: 2
Fore
SplineSet
448 448 m 1,0,-1
 960 448 l 1,1,-1
 960 0 l 2,2,3
 960 -185 960 -185 828.5 -316.5 c 128,-1,4
 697 -448 697 -448 512 -448 c 128,-1,5
 327 -448 327 -448 195.5 -316.5 c 128,-1,6
 64 -185 64 -185 64 0 c 1,7,8
 64 0 64 0 192 0 c 1,9,10
 192 -133 192 -133 285.5 -226.5 c 128,-1,11
 379 -320 379 -320 512 -320 c 128,-1,12
 645 -320 645 -320 738.5 -226.5 c 128,-1,13
 832 -133 832 -133 832 0 c 2,14,15
 832 0 832 0 832 320 c 1,16,-1
 448 320 l 1,17,-1
 448 448 l 1,0,-1
192 448 m 1,18,-1
 192 320 l 1,19,-1
 64 320 l 1,20,-1
 64 448 l 1,21,-1
 192 448 l 1,18,-1
EndSplineSet
Validated: 1025
EndChar

StartChar: bracketright
Encoding: 93 93 129
Width: 1024
Flags: W
LayerCount: 2
Fore
SplineSet
64 -64 m 1,0,-1
 64 448 l 1,1,-1
 512 448 l 2,2,3
 697 448 697 448 828.5 316.5 c 128,-1,4
 960 185 960 185 960 0 c 128,-1,5
 960 -185 960 -185 828.5 -316.5 c 128,-1,6
 697 -448 697 -448 512 -448 c 1,7,8
 512 -448 512 -448 512 -320 c 1,9,10
 645 -320 645 -320 738.5 -226.5 c 128,-1,11
 832 -133 832 -133 832 0 c 128,-1,12
 832 133 832 133 738.5 226.5 c 128,-1,13
 645 320 645 320 512 320 c 2,14,15
 512 320 512 320 192 320 c 1,16,-1
 192 -64 l 1,17,-1
 64 -64 l 1,0,-1
64 -320 m 1,18,-1
 192 -320 l 1,19,-1
 192 -448 l 1,20,-1
 64 -448 l 1,21,-1
 64 -320 l 1,18,-1
EndSplineSet
Validated: 1025
EndChar

StartChar: asciicircum
Encoding: 94 94 130
Width: 1024
Flags: W
LayerCount: 2
Fore
SplineSet
576 -448 m 1,0,-1
 64 -448 l 1,1,-1
 64 0 l 2,2,3
 64 185 64 185 195.5 316.5 c 128,-1,4
 327 448 327 448 512 448 c 128,-1,5
 697 448 697 448 828.5 316.5 c 128,-1,6
 960 185 960 185 960 0 c 1,7,8
 960 0 960 0 832 0 c 1,9,10
 832 133 832 133 738.5 226.5 c 128,-1,11
 645 320 645 320 512 320 c 128,-1,12
 379 320 379 320 285.5 226.5 c 128,-1,13
 192 133 192 133 192 0 c 2,14,15
 192 0 192 0 192 -320 c 1,16,-1
 576 -320 l 1,17,-1
 576 -448 l 1,0,-1
832 -448 m 1,18,-1
 832 -320 l 1,19,-1
 960 -320 l 1,20,-1
 960 -448 l 1,21,-1
 832 -448 l 1,18,-1
EndSplineSet
Validated: 1025
EndChar

StartChar: underscore
Encoding: 95 95 131
Width: 1024
Flags: W
LayerCount: 2
Fore
SplineSet
960 64 m 1,0,-1
 960 -448 l 1,1,-1
 512 -448 l 2,2,3
 327 -448 327 -448 195.5 -316.5 c 128,-1,4
 64 -185 64 -185 64 0 c 128,-1,5
 64 185 64 185 195.5 316.5 c 128,-1,6
 327 448 327 448 512 448 c 1,7,8
 512 448 512 448 512 320 c 1,9,10
 379 320 379 320 285.5 226.5 c 128,-1,11
 192 133 192 133 192 0 c 128,-1,12
 192 -133 192 -133 285.5 -226.5 c 128,-1,13
 379 -320 379 -320 512 -320 c 2,14,15
 512 -320 512 -320 832 -320 c 1,16,-1
 832 64 l 1,17,-1
 960 64 l 1,0,-1
960 320 m 1,18,-1
 832 320 l 1,19,-1
 832 448 l 1,20,-1
 960 448 l 1,21,-1
 960 320 l 1,18,-1
EndSplineSet
Validated: 1025
EndChar

StartChar: grave
Encoding: 96 96 132
Width: 1024
Flags: W
LayerCount: 2
Fore
SplineSet
826 -64 m 5,0,1
 826 -64 826 -64 198 -64 c 5,2,3
 216 -156 216 -156 286 -226 c 4,4,5
 380 -320 380 -320 512 -320 c 132,-1,6
 644 -320 644 -320 738 -226 c 4,7,8
 808 -156 808 -156 826 -64 c 5,0,1
192 64 m 5,9,-1
 956 64 l 5,10,11
 960 33 960 33 960 0 c 4,12,13
 960 -185 960 -185 828.5 -316.5 c 132,-1,14
 697 -448 697 -448 512 -448 c 132,-1,15
 327 -448 327 -448 195.5 -316.5 c 132,-1,16
 64 -185 64 -185 64 0 c 13,17,18
 64 0 64 0 64 448 c 5,19,-1
 192 448 l 5,20,-1
 192 64 l 5,9,-1
EndSplineSet
Validated: 1
EndChar

StartChar: a
Encoding: 97 97 133
Width: 1024
Flags: W
LayerCount: 2
Fore
SplineSet
576 314 m 5,0,1
 576 314 576 314 576 -314 c 5,2,3
 668 -296 668 -296 738 -226 c 4,4,5
 832 -132 832 -132 832 0 c 132,-1,6
 832 132 832 132 738 226 c 4,7,8
 668 296 668 296 576 314 c 5,0,1
448 -320 m 5,9,-1
 448 444 l 5,10,11
 479 448 479 448 512 448 c 4,12,13
 697 448 697 448 828.5 316.5 c 132,-1,14
 960 185 960 185 960 0 c 132,-1,15
 960 -185 960 -185 828.5 -316.5 c 132,-1,16
 697 -448 697 -448 512 -448 c 13,17,18
 512 -448 512 -448 64 -448 c 5,19,-1
 64 -320 l 5,20,-1
 448 -320 l 5,9,-1
EndSplineSet
Validated: 1
EndChar

StartChar: b
Encoding: 98 98 134
Width: 1024
Flags: W
LayerCount: 2
Fore
SplineSet
198 64 m 5,0,1
 198 64 198 64 826 64 c 5,2,3
 808 156 808 156 738 226 c 4,4,5
 644 320 644 320 512 320 c 132,-1,6
 380 320 380 320 286 226 c 4,7,8
 216 156 216 156 198 64 c 5,0,1
832 -64 m 5,9,-1
 68 -64 l 5,10,11
 64 -33 64 -33 64 0 c 4,12,13
 64 185 64 185 195.5 316.5 c 132,-1,14
 327 448 327 448 512 448 c 132,-1,15
 697 448 697 448 828.5 316.5 c 132,-1,16
 960 185 960 185 960 0 c 13,17,18
 960 0 960 0 960 -448 c 5,19,-1
 832 -448 l 5,20,-1
 832 -64 l 5,9,-1
EndSplineSet
Validated: 1
EndChar

StartChar: c
Encoding: 99 99 135
Width: 1024
Flags: W
LayerCount: 2
Fore
SplineSet
448 -314 m 5,0,1
 448 -314 448 -314 448 314 c 5,2,3
 356 296 356 296 286 226 c 4,4,5
 192 132 192 132 192 0 c 132,-1,6
 192 -132 192 -132 286 -226 c 4,7,8
 356 -296 356 -296 448 -314 c 5,0,1
576 320 m 5,9,-1
 576 -444 l 5,10,11
 545 -448 545 -448 512 -448 c 4,12,13
 327 -448 327 -448 195.5 -316.5 c 132,-1,14
 64 -185 64 -185 64 0 c 132,-1,15
 64 185 64 185 195.5 316.5 c 132,-1,16
 327 448 327 448 512 448 c 13,17,18
 512 448 512 448 960 448 c 5,19,-1
 960 320 l 5,20,-1
 576 320 l 5,9,-1
EndSplineSet
Validated: 1
EndChar

StartChar: d
Encoding: 100 100 136
Width: 1024
Flags: W
LayerCount: 2
Fore
SplineSet
198 -64 m 5,0,1
 216 -156 216 -156 286 -226 c 4,2,3
 380 -320 380 -320 512 -320 c 132,-1,4
 644 -320 644 -320 738 -226 c 4,5,6
 808 -156 808 -156 826 -64 c 5,7,8
 198 -64 198 -64 198 -64 c 5,0,1
832 64 m 1,9,-1
 832 448 l 1,10,-1
 960 448 l 1,11,-1
 960 0 l 17,12,13
 960 -185 960 -185 828.5 -316.5 c 128,-1,14
 697 -448 697 -448 512 -448 c 128,-1,15
 327 -448 327 -448 195.5 -316.5 c 128,-1,16
 64 -185 64 -185 64 0 c 0,17,18
 64 33 64 33 68 64 c 1,19,20
 68 64 68 64 832 64 c 1,9,-1
EndSplineSet
Validated: 1
EndChar

StartChar: e
Encoding: 101 101 137
Width: 1024
Flags: W
LayerCount: 2
Fore
SplineSet
576 -314 m 5,0,1
 668 -296 668 -296 738 -226 c 4,2,3
 832 -132 832 -132 832 0 c 132,-1,4
 832 132 832 132 738 226 c 4,5,6
 668 296 668 296 576 314 c 5,7,8
 576 -314 576 -314 576 -314 c 5,0,1
448 320 m 1,9,-1
 64 320 l 1,10,-1
 64 448 l 1,11,-1
 512 448 l 17,12,13
 697 448 697 448 828.5 316.5 c 128,-1,14
 960 185 960 185 960 0 c 128,-1,15
 960 -185 960 -185 828.5 -316.5 c 128,-1,16
 697 -448 697 -448 512 -448 c 0,17,18
 479 -448 479 -448 448 -444 c 1,19,20
 448 -444 448 -444 448 320 c 1,9,-1
EndSplineSet
Validated: 1
EndChar

StartChar: f
Encoding: 102 102 138
Width: 1024
Flags: W
LayerCount: 2
Fore
SplineSet
826 64 m 5,0,1
 808 156 808 156 738 226 c 4,2,3
 644 320 644 320 512 320 c 132,-1,4
 380 320 380 320 286 226 c 4,5,6
 216 156 216 156 198 64 c 5,7,8
 826 64 826 64 826 64 c 5,0,1
192 -64 m 1,9,-1
 192 -448 l 1,10,-1
 64 -448 l 1,11,-1
 64 0 l 17,12,13
 64 185 64 185 195.5 316.5 c 128,-1,14
 327 448 327 448 512 448 c 128,-1,15
 697 448 697 448 828.5 316.5 c 128,-1,16
 960 185 960 185 960 0 c 0,17,18
 960 -33 960 -33 956 -64 c 1,19,20
 956 -64 956 -64 192 -64 c 1,9,-1
EndSplineSet
Validated: 1
EndChar

StartChar: g
Encoding: 103 103 139
Width: 1024
Flags: W
LayerCount: 2
Fore
SplineSet
448 314 m 5,0,1
 356 296 356 296 286 226 c 4,2,3
 192 132 192 132 192 0 c 132,-1,4
 192 -132 192 -132 286 -226 c 4,5,6
 356 -296 356 -296 448 -314 c 5,7,8
 448 314 448 314 448 314 c 5,0,1
576 -320 m 1,9,-1
 960 -320 l 1,10,-1
 960 -448 l 1,11,-1
 512 -448 l 17,12,13
 327 -448 327 -448 195.5 -316.5 c 128,-1,14
 64 -185 64 -185 64 0 c 128,-1,15
 64 185 64 185 195.5 316.5 c 128,-1,16
 327 448 327 448 512 448 c 0,17,18
 545 448 545 448 576 444 c 1,19,20
 576 444 576 444 576 -320 c 1,9,-1
EndSplineSet
Validated: 1
EndChar

StartChar: h
Encoding: 104 104 140
Width: 1024
Flags: W
LayerCount: 2
Fore
SplineSet
832 448 m 5,0,-1
 960 448 l 5,1,-1
 960 320 l 5,2,-1
 832 320 l 5,3,-1
 832 448 l 5,0,-1
826 -64 m 5,4,-1
 198 -64 l 5,5,6
 216 -156 216 -156 286 -226 c 4,7,8
 380 -320 380 -320 512 -320 c 132,-1,9
 644 -320 644 -320 738 -226 c 4,10,11
 808 -156 808 -156 826 -64 c 5,4,-1
192 64 m 5,12,-1
 956 64 l 5,13,14
 960 33 960 33 960 0 c 4,15,16
 960 -185 960 -185 828.5 -316.5 c 132,-1,17
 697 -448 697 -448 512 -448 c 132,-1,18
 327 -448 327 -448 195.5 -316.5 c 132,-1,19
 64 -185 64 -185 64 0 c 6,20,-1
 64 448 l 5,21,-1
 192 448 l 5,22,-1
 192 64 l 5,12,-1
EndSplineSet
Validated: 1025
EndChar

StartChar: i
Encoding: 105 105 141
Width: 1024
Flags: W
LayerCount: 2
Fore
SplineSet
64 320 m 5,0,-1
 64 448 l 5,1,-1
 192 448 l 5,2,-1
 192 320 l 5,3,-1
 64 320 l 5,0,-1
576 314 m 5,4,-1
 576 -314 l 5,5,6
 668 -296 668 -296 738 -226 c 4,7,8
 832 -132 832 -132 832 0 c 132,-1,9
 832 132 832 132 738 226 c 4,10,11
 668 296 668 296 576 314 c 5,4,-1
448 -320 m 5,12,-1
 448 444 l 5,13,14
 479 448 479 448 512 448 c 4,15,16
 697 448 697 448 828.5 316.5 c 132,-1,17
 960 185 960 185 960 0 c 132,-1,18
 960 -185 960 -185 828.5 -316.5 c 132,-1,19
 697 -448 697 -448 512 -448 c 6,20,-1
 64 -448 l 5,21,-1
 64 -320 l 5,22,-1
 448 -320 l 5,12,-1
EndSplineSet
Validated: 1025
EndChar

StartChar: j
Encoding: 106 106 142
Width: 1024
Flags: W
LayerCount: 2
Fore
SplineSet
192 -448 m 5,0,-1
 64 -448 l 5,1,-1
 64 -320 l 5,2,-1
 192 -320 l 5,3,-1
 192 -448 l 5,0,-1
198 64 m 5,4,-1
 826 64 l 5,5,6
 808 156 808 156 738 226 c 4,7,8
 644 320 644 320 512 320 c 132,-1,9
 380 320 380 320 286 226 c 4,10,11
 216 156 216 156 198 64 c 5,4,-1
832 -64 m 5,12,-1
 68 -64 l 5,13,14
 64 -33 64 -33 64 0 c 4,15,16
 64 185 64 185 195.5 316.5 c 132,-1,17
 327 448 327 448 512 448 c 132,-1,18
 697 448 697 448 828.5 316.5 c 132,-1,19
 960 185 960 185 960 0 c 6,20,-1
 960 -448 l 5,21,-1
 832 -448 l 5,22,-1
 832 -64 l 5,12,-1
EndSplineSet
Validated: 1025
EndChar

StartChar: k
Encoding: 107 107 143
Width: 1024
Flags: W
LayerCount: 2
Fore
SplineSet
960 -320 m 5,0,-1
 960 -448 l 5,1,-1
 832 -448 l 5,2,-1
 832 -320 l 5,3,-1
 960 -320 l 5,0,-1
448 -314 m 5,4,-1
 448 314 l 5,5,6
 356 296 356 296 286 226 c 4,7,8
 192 132 192 132 192 0 c 132,-1,9
 192 -132 192 -132 286 -226 c 4,10,11
 356 -296 356 -296 448 -314 c 5,4,-1
576 320 m 5,12,-1
 576 -444 l 5,13,14
 545 -448 545 -448 512 -448 c 4,15,16
 327 -448 327 -448 195.5 -316.5 c 132,-1,17
 64 -185 64 -185 64 0 c 132,-1,18
 64 185 64 185 195.5 316.5 c 132,-1,19
 327 448 327 448 512 448 c 6,20,-1
 960 448 l 5,21,-1
 960 320 l 5,22,-1
 576 320 l 5,12,-1
EndSplineSet
Validated: 1025
EndChar

StartChar: l
Encoding: 108 108 144
Width: 1024
Flags: W
LayerCount: 2
Fore
SplineSet
192 448 m 5,0,-1
 192 320 l 5,1,-1
 64 320 l 5,2,-1
 64 448 l 5,3,-1
 192 448 l 5,0,-1
198 -64 m 5,4,5
 216 -156 216 -156 286 -226 c 4,6,7
 380 -320 380 -320 512 -320 c 132,-1,8
 644 -320 644 -320 738 -226 c 4,9,10
 808 -156 808 -156 826 -64 c 5,11,12
 826 -64 826 -64 198 -64 c 5,4,5
832 64 m 5,13,-1
 832 448 l 5,14,-1
 960 448 l 5,15,-1
 960 0 l 6,16,17
 960 -185 960 -185 828.5 -316.5 c 132,-1,18
 697 -448 697 -448 512 -448 c 132,-1,19
 327 -448 327 -448 195.5 -316.5 c 132,-1,20
 64 -185 64 -185 64 0 c 4,21,22
 64 33 64 33 68 64 c 5,23,24
 68 64 68 64 832 64 c 5,13,-1
EndSplineSet
Validated: 1025
EndChar

StartChar: m
Encoding: 109 109 145
Width: 1024
Flags: W
LayerCount: 2
Fore
SplineSet
64 -320 m 5,0,-1
 192 -320 l 5,1,-1
 192 -448 l 5,2,-1
 64 -448 l 5,3,-1
 64 -320 l 5,0,-1
576 -314 m 5,4,5
 668 -296 668 -296 738 -226 c 4,6,7
 832 -132 832 -132 832 0 c 132,-1,8
 832 132 832 132 738 226 c 4,9,10
 668 296 668 296 576 314 c 5,11,12
 576 314 576 314 576 -314 c 5,4,5
448 320 m 5,13,-1
 64 320 l 5,14,-1
 64 448 l 5,15,-1
 512 448 l 6,16,17
 697 448 697 448 828.5 316.5 c 132,-1,18
 960 185 960 185 960 0 c 132,-1,19
 960 -185 960 -185 828.5 -316.5 c 132,-1,20
 697 -448 697 -448 512 -448 c 4,21,22
 479 -448 479 -448 448 -444 c 5,23,24
 448 -444 448 -444 448 320 c 5,13,-1
EndSplineSet
Validated: 1025
EndChar

StartChar: n
Encoding: 110 110 146
Width: 1024
Flags: W
LayerCount: 2
Fore
SplineSet
832 -448 m 5,0,-1
 832 -320 l 5,1,-1
 960 -320 l 5,2,-1
 960 -448 l 5,3,-1
 832 -448 l 5,0,-1
826 64 m 5,4,5
 808 156 808 156 738 226 c 4,6,7
 644 320 644 320 512 320 c 132,-1,8
 380 320 380 320 286 226 c 4,9,10
 216 156 216 156 198 64 c 5,11,12
 198 64 198 64 826 64 c 5,4,5
192 -64 m 5,13,-1
 192 -448 l 5,14,-1
 64 -448 l 5,15,-1
 64 0 l 6,16,17
 64 185 64 185 195.5 316.5 c 132,-1,18
 327 448 327 448 512 448 c 132,-1,19
 697 448 697 448 828.5 316.5 c 132,-1,20
 960 185 960 185 960 0 c 4,21,22
 960 -33 960 -33 956 -64 c 5,23,24
 956 -64 956 -64 192 -64 c 5,13,-1
EndSplineSet
Validated: 1025
EndChar

StartChar: o
Encoding: 111 111 147
Width: 1024
Flags: W
LayerCount: 2
Fore
SplineSet
960 320 m 5,0,-1
 832 320 l 5,1,-1
 832 448 l 5,2,-1
 960 448 l 5,3,-1
 960 320 l 5,0,-1
448 314 m 5,4,5
 356 296 356 296 286 226 c 4,6,7
 192 132 192 132 192 0 c 132,-1,8
 192 -132 192 -132 286 -226 c 4,9,10
 356 -296 356 -296 448 -314 c 5,11,12
 448 -314 448 -314 448 314 c 5,4,5
576 -320 m 5,13,-1
 960 -320 l 5,14,-1
 960 -448 l 5,15,-1
 512 -448 l 6,16,17
 327 -448 327 -448 195.5 -316.5 c 132,-1,18
 64 -185 64 -185 64 0 c 132,-1,19
 64 185 64 185 195.5 316.5 c 132,-1,20
 327 448 327 448 512 448 c 4,21,22
 545 448 545 448 576 444 c 5,23,24
 576 444 576 444 576 -320 c 5,13,-1
EndSplineSet
Validated: 1025
EndChar

StartChar: p
Encoding: 112 112 148
Width: 1024
Flags: W
LayerCount: 2
Fore
SplineSet
448 -444 m 5,0,1
 448 -444 448 -444 448 -314 c 5,2,3
 479 -320 479 -320 512 -320 c 4,4,5
 644 -320 644 -320 738 -226 c 4,6,7
 808 -156 808 -156 826 -64 c 5,8,9
 826 -64 826 -64 64 -64 c 5,10,-1
 64 448 l 5,11,-1
 192 448 l 5,12,-1
 192 64 l 5,13,-1
 956 64 l 5,14,15
 960 33 960 33 960 0 c 4,16,17
 960 -185 960 -185 828.5 -316.5 c 132,-1,18
 697 -448 697 -448 512 -448 c 4,19,20
 479 -448 479 -448 448 -444 c 5,0,1
EndSplineSet
Validated: 1
EndChar

StartChar: q
Encoding: 113 113 149
Width: 1024
Flags: W
LayerCount: 2
Fore
SplineSet
956 -64 m 5,0,1
 956 -64 956 -64 826 -64 c 5,2,3
 832 -33 832 -33 832 0 c 4,4,5
 832 132 832 132 738 226 c 4,6,7
 668 296 668 296 576 314 c 5,8,9
 576 314 576 314 576 -448 c 5,10,-1
 64 -448 l 5,11,-1
 64 -320 l 5,12,-1
 448 -320 l 5,13,-1
 448 444 l 5,14,15
 479 448 479 448 512 448 c 4,16,17
 697 448 697 448 828.5 316.5 c 132,-1,18
 960 185 960 185 960 0 c 4,19,20
 960 -33 960 -33 956 -64 c 5,0,1
EndSplineSet
Validated: 1
EndChar

StartChar: r
Encoding: 114 114 150
Width: 1024
Flags: W
LayerCount: 2
Fore
SplineSet
576 444 m 5,0,1
 576 444 576 444 576 314 c 5,2,3
 545 320 545 320 512 320 c 4,4,5
 380 320 380 320 286 226 c 4,6,7
 216 156 216 156 198 64 c 5,8,9
 198 64 198 64 960 64 c 5,10,-1
 960 -448 l 5,11,-1
 832 -448 l 5,12,-1
 832 -64 l 5,13,-1
 68 -64 l 5,14,15
 64 -33 64 -33 64 0 c 4,16,17
 64 185 64 185 195.5 316.5 c 132,-1,18
 327 448 327 448 512 448 c 4,19,20
 545 448 545 448 576 444 c 5,0,1
EndSplineSet
Validated: 1
EndChar

StartChar: s
Encoding: 115 115 151
Width: 1024
Flags: W
LayerCount: 2
Fore
SplineSet
68 64 m 5,0,1
 68 64 68 64 198 64 c 5,2,3
 192 33 192 33 192 0 c 4,4,5
 192 -132 192 -132 286 -226 c 4,6,7
 356 -296 356 -296 448 -314 c 5,8,9
 448 -314 448 -314 448 448 c 5,10,-1
 960 448 l 5,11,-1
 960 320 l 5,12,-1
 576 320 l 5,13,-1
 576 -444 l 5,14,15
 545 -448 545 -448 512 -448 c 4,16,17
 327 -448 327 -448 195.5 -316.5 c 132,-1,18
 64 -185 64 -185 64 0 c 4,19,20
 64 33 64 33 68 64 c 5,0,1
EndSplineSet
Validated: 1
EndChar

StartChar: t
Encoding: 116 116 152
Width: 1024
Flags: W
LayerCount: 2
Fore
SplineSet
576 -444 m 1,0,1
 545 -448 545 -448 512 -448 c 0,2,3
 327 -448 327 -448 195.5 -316.5 c 128,-1,4
 64 -185 64 -185 64 0 c 0,5,6
 64 33 64 33 68 64 c 1,7,8
 68 64 68 64 832 64 c 1,9,-1
 832 448 l 1,10,-1
 960 448 l 1,11,-1
 960 -64 l 1,12,-1
 198 -64 l 1,13,14
 216 -156 216 -156 286 -226 c 0,15,16
 380 -320 380 -320 512 -320 c 0,17,18
 545 -320 545 -320 576 -314 c 1,19,20
 576 -444 576 -444 576 -444 c 1,0,1
EndSplineSet
Validated: 1
EndChar

StartChar: u
Encoding: 117 117 153
Width: 1024
Flags: W
LayerCount: 2
Fore
SplineSet
956 64 m 1,0,1
 960 33 960 33 960 0 c 0,2,3
 960 -185 960 -185 828.5 -316.5 c 128,-1,4
 697 -448 697 -448 512 -448 c 0,5,6
 479 -448 479 -448 448 -444 c 1,7,8
 448 -444 448 -444 448 320 c 1,9,-1
 64 320 l 1,10,-1
 64 448 l 1,11,-1
 576 448 l 1,12,-1
 576 -314 l 1,13,14
 668 -296 668 -296 738 -226 c 0,15,16
 832 -132 832 -132 832 0 c 0,17,18
 832 33 832 33 826 64 c 1,19,20
 956 64 956 64 956 64 c 1,0,1
EndSplineSet
Validated: 1
EndChar

StartChar: v
Encoding: 118 118 154
Width: 1024
Flags: W
LayerCount: 2
Fore
SplineSet
448 444 m 1,0,1
 479 448 479 448 512 448 c 0,2,3
 697 448 697 448 828.5 316.5 c 128,-1,4
 960 185 960 185 960 0 c 0,5,6
 960 -33 960 -33 956 -64 c 1,7,8
 956 -64 956 -64 192 -64 c 1,9,-1
 192 -448 l 1,10,-1
 64 -448 l 1,11,-1
 64 64 l 1,12,-1
 826 64 l 1,13,14
 808 156 808 156 738 226 c 0,15,16
 644 320 644 320 512 320 c 0,17,18
 479 320 479 320 448 314 c 1,19,20
 448 444 448 444 448 444 c 1,0,1
EndSplineSet
Validated: 1
EndChar

StartChar: w
Encoding: 119 119 155
Width: 1024
Flags: W
LayerCount: 2
Fore
SplineSet
68 -64 m 1,0,1
 64 -33 64 -33 64 0 c 0,2,3
 64 185 64 185 195.5 316.5 c 128,-1,4
 327 448 327 448 512 448 c 0,5,6
 545 448 545 448 576 444 c 1,7,8
 576 444 576 444 576 -320 c 1,9,-1
 960 -320 l 1,10,-1
 960 -448 l 1,11,-1
 448 -448 l 1,12,-1
 448 314 l 1,13,14
 356 296 356 296 286 226 c 0,15,16
 192 132 192 132 192 0 c 0,17,18
 192 -33 192 -33 198 -64 c 1,19,20
 68 -64 68 -64 68 -64 c 1,0,1
EndSplineSet
Validated: 1
EndChar

StartChar: x
Encoding: 120 120 156
Width: 1024
Flags: W
LayerCount: 2
Fore
SplineSet
448 -444 m 5,0,-1
 448 -314 l 5,1,2
 479 -320 479 -320 512 -320 c 4,3,4
 644 -320 644 -320 738 -226 c 4,5,6
 808 -156 808 -156 826 -64 c 5,7,-1
 64 -64 l 5,8,-1
 64 448 l 5,9,-1
 192 448 l 5,10,-1
 192 64 l 5,11,-1
 956 64 l 5,12,13
 960 33 960 33 960 0 c 4,14,15
 960 -185 960 -185 828.5 -316.5 c 132,-1,16
 697 -448 697 -448 512 -448 c 4,17,18
 479 -448 479 -448 448 -444 c 5,0,-1
832 448 m 5,19,-1
 960 448 l 5,20,-1
 960 320 l 5,21,-1
 832 320 l 5,22,-1
 832 448 l 5,19,-1
EndSplineSet
Validated: 1025
EndChar

StartChar: y
Encoding: 121 121 157
Width: 1024
Flags: W
LayerCount: 2
Fore
SplineSet
956 -64 m 5,0,-1
 826 -64 l 5,1,2
 832 -33 832 -33 832 0 c 4,3,4
 832 132 832 132 738 226 c 4,5,6
 668 296 668 296 576 314 c 5,7,-1
 576 -448 l 5,8,-1
 64 -448 l 5,9,-1
 64 -320 l 5,10,-1
 448 -320 l 5,11,-1
 448 444 l 5,12,13
 479 448 479 448 512 448 c 4,14,15
 697 448 697 448 828.5 316.5 c 132,-1,16
 960 185 960 185 960 0 c 4,17,18
 960 -33 960 -33 956 -64 c 5,0,-1
64 320 m 5,19,-1
 64 448 l 5,20,-1
 192 448 l 5,21,-1
 192 320 l 5,22,-1
 64 320 l 5,19,-1
EndSplineSet
Validated: 1025
EndChar

StartChar: z
Encoding: 122 122 158
Width: 1024
Flags: W
LayerCount: 2
Fore
SplineSet
576 444 m 5,0,-1
 576 314 l 5,1,2
 545 320 545 320 512 320 c 4,3,4
 380 320 380 320 286 226 c 4,5,6
 216 156 216 156 198 64 c 5,7,-1
 960 64 l 5,8,-1
 960 -448 l 5,9,-1
 832 -448 l 5,10,-1
 832 -64 l 5,11,-1
 68 -64 l 5,12,13
 64 -33 64 -33 64 0 c 4,14,15
 64 185 64 185 195.5 316.5 c 132,-1,16
 327 448 327 448 512 448 c 4,17,18
 545 448 545 448 576 444 c 5,0,-1
192 -448 m 5,19,-1
 64 -448 l 5,20,-1
 64 -320 l 5,21,-1
 192 -320 l 5,22,-1
 192 -448 l 5,19,-1
EndSplineSet
Validated: 1025
EndChar

StartChar: braceleft
Encoding: 123 123 159
Width: 1024
Flags: W
LayerCount: 2
Fore
SplineSet
68 64 m 5,0,-1
 198 64 l 5,1,2
 192 33 192 33 192 0 c 4,3,4
 192 -132 192 -132 286 -226 c 4,5,6
 356 -296 356 -296 448 -314 c 5,7,-1
 448 448 l 5,8,-1
 960 448 l 5,9,-1
 960 320 l 5,10,-1
 576 320 l 5,11,-1
 576 -444 l 5,12,13
 545 -448 545 -448 512 -448 c 4,14,15
 327 -448 327 -448 195.5 -316.5 c 132,-1,16
 64 -185 64 -185 64 0 c 4,17,18
 64 33 64 33 68 64 c 5,0,-1
960 -320 m 5,19,-1
 960 -448 l 5,20,-1
 832 -448 l 5,21,-1
 832 -320 l 5,22,-1
 960 -320 l 5,19,-1
EndSplineSet
Validated: 1025
EndChar

StartChar: bar
Encoding: 124 124 160
Width: 1024
Flags: W
LayerCount: 2
Fore
SplineSet
576 -444 m 1,0,1
 545 -448 545 -448 512 -448 c 0,2,3
 327 -448 327 -448 195.5 -316.5 c 128,-1,4
 64 -185 64 -185 64 0 c 0,5,6
 64 33 64 33 68 64 c 1,7,8
 68 64 68 64 832 64 c 1,9,-1
 832 448 l 1,10,-1
 960 448 l 1,11,-1
 960 -64 l 1,12,-1
 198 -64 l 1,13,14
 216 -156 216 -156 286 -226 c 0,15,16
 380 -320 380 -320 512 -320 c 0,17,18
 545 -320 545 -320 576 -314 c 1,19,20
 576 -314 576 -314 576 -444 c 1,0,1
192 448 m 1,21,-1
 192 320 l 1,22,-1
 64 320 l 1,23,-1
 64 448 l 1,24,-1
 192 448 l 1,21,-1
EndSplineSet
Validated: 1025
EndChar

StartChar: braceright
Encoding: 125 125 161
Width: 1024
Flags: W
LayerCount: 2
Fore
SplineSet
956 64 m 1,0,1
 960 33 960 33 960 0 c 0,2,3
 960 -185 960 -185 828.5 -316.5 c 128,-1,4
 697 -448 697 -448 512 -448 c 0,5,6
 479 -448 479 -448 448 -444 c 1,7,8
 448 -444 448 -444 448 320 c 1,9,-1
 64 320 l 1,10,-1
 64 448 l 1,11,-1
 576 448 l 1,12,-1
 576 -314 l 1,13,14
 668 -296 668 -296 738 -226 c 0,15,16
 832 -132 832 -132 832 0 c 0,17,18
 832 33 832 33 826 64 c 1,19,20
 826 64 826 64 956 64 c 1,0,1
64 -320 m 1,21,-1
 192 -320 l 1,22,-1
 192 -448 l 1,23,-1
 64 -448 l 1,24,-1
 64 -320 l 1,21,-1
EndSplineSet
Validated: 1025
EndChar

StartChar: asciitilde
Encoding: 126 126 162
Width: 1024
Flags: W
LayerCount: 2
Fore
SplineSet
448 444 m 1,0,1
 479 448 479 448 512 448 c 0,2,3
 697 448 697 448 828.5 316.5 c 128,-1,4
 960 185 960 185 960 0 c 0,5,6
 960 -33 960 -33 956 -64 c 1,7,8
 956 -64 956 -64 192 -64 c 1,9,-1
 192 -448 l 1,10,-1
 64 -448 l 1,11,-1
 64 64 l 1,12,-1
 826 64 l 1,13,14
 808 156 808 156 738 226 c 0,15,16
 644 320 644 320 512 320 c 0,17,18
 479 320 479 320 448 314 c 1,19,20
 448 314 448 314 448 444 c 1,0,1
832 -448 m 1,21,-1
 832 -320 l 1,22,-1
 960 -320 l 1,23,-1
 960 -448 l 1,24,-1
 832 -448 l 1,21,-1
EndSplineSet
Validated: 1025
EndChar

StartChar: uni007F
Encoding: 127 127 163
Width: 1024
Flags: W
LayerCount: 2
Fore
SplineSet
68 -64 m 1,0,1
 64 -33 64 -33 64 0 c 0,2,3
 64 185 64 185 195.5 316.5 c 128,-1,4
 327 448 327 448 512 448 c 0,5,6
 545 448 545 448 576 444 c 1,7,8
 576 444 576 444 576 -320 c 1,9,-1
 960 -320 l 1,10,-1
 960 -448 l 1,11,-1
 448 -448 l 1,12,-1
 448 314 l 1,13,14
 356 296 356 296 286 226 c 0,15,16
 192 132 192 132 192 0 c 0,17,18
 192 -33 192 -33 198 -64 c 1,19,20
 198 -64 198 -64 68 -64 c 1,0,1
960 320 m 1,21,-1
 832 320 l 1,22,-1
 832 448 l 1,23,-1
 960 448 l 1,24,-1
 960 320 l 1,21,-1
EndSplineSet
Validated: 1025
EndChar
